<svg width="210" height="47" viewBox="0 0 210 47" fill="none" xmlns="http://www.w3.org/2000/svg">
<g filter="url(#filter0_d_1_75)">
<rect x="7" y="3" width="160" height="33" fill="#140CB4"/>
</g>
<path d="M27.18 27.2C26.7933 27.2 26.3333 27.18 25.8 27.14C25.28 27.1133 24.7067 27.0533 24.08 26.96V12.44C24.72 12.3467 25.3 12.2867 25.82 12.26C26.34 12.22 26.7933 12.2 27.18 12.2C28.8467 12.2 30.0867 12.4933 30.9 13.08C31.7133 13.6667 32.12 14.56 32.12 15.76C32.12 16.6133 31.92 17.3333 31.52 17.92C31.1333 18.5067 30.58 18.9 29.86 19.1V19.18C30.7267 19.3533 31.3867 19.76 31.84 20.4C32.2933 21.04 32.52 21.8867 32.52 22.94C32.52 24.3933 32.08 25.4667 31.2 26.16C30.3333 26.8533 28.9933 27.2 27.18 27.2ZM26.12 24.74C26.3067 24.8333 26.5 24.9067 26.7 24.96C26.9133 25 27.1733 25.02 27.48 25.02C28.3333 25.02 28.96 24.8267 29.36 24.44C29.76 24.0533 29.96 23.46 29.96 22.66C29.96 21.8467 29.7533 21.2533 29.34 20.88C28.9267 20.5067 28.2733 20.32 27.38 20.32H25.32V18.24H27.12C27.9733 18.24 28.5933 18.0867 28.98 17.78C29.38 17.4733 29.58 16.98 29.58 16.3C29.58 15.6467 29.4067 15.1667 29.06 14.86C28.7267 14.54 28.2 14.38 27.48 14.38C27.2267 14.38 26.9867 14.4 26.76 14.44C26.5333 14.48 26.32 14.5533 26.12 14.66L26.56 13.88V25.52L26.12 24.74ZM34.42 27V24.86H36.72V14.54H34.42V12.4H41.58V14.54H39.28V24.86H41.58V27H34.42ZM48 27.2C46.92 27.2 46.0533 26.98 45.4 26.54C44.76 26.0867 44.2933 25.3533 44 24.34C43.72 23.3267 43.58 21.98 43.58 20.3V19.1C43.58 17.4067 43.72 16.06 44 15.06C44.2933 14.0467 44.76 13.32 45.4 12.88C46.0533 12.4267 46.92 12.2 48 12.2C49.08 12.2 49.94 12.4267 50.58 12.88C51.2333 13.32 51.7 14.0467 51.98 15.06C52.2733 16.06 52.42 17.4067 52.42 19.1V20.3C52.42 21.98 52.2733 23.3267 51.98 24.34C51.7 25.3533 51.2333 26.0867 50.58 26.54C49.94 26.98 49.08 27.2 48 27.2ZM48 24.98C48.5067 24.98 48.8867 24.8533 49.14 24.6C49.4067 24.3333 49.5933 23.8533 49.7 23.16C49.8067 22.4533 49.86 21.44 49.86 20.12V19.28C49.86 17.96 49.8067 16.9533 49.7 16.26C49.5933 15.5533 49.4067 15.0733 49.14 14.82C48.8867 14.5533 48.5067 14.42 48 14.42C47.5067 14.42 47.1267 14.5533 46.86 14.82C46.5933 15.0733 46.4067 15.5533 46.3 16.26C46.1933 16.9533 46.14 17.96 46.14 19.28V20.12C46.14 21.44 46.1933 22.4533 46.3 23.16C46.4067 23.8533 46.5933 24.3333 46.86 24.6C47.1267 24.8533 47.5067 24.98 48 24.98Z" fill="white"/>
<defs>
<filter id="filter0_d_1_75" x="0" y="0" width="174" height="47" filterUnits="userSpaceOnUse" color-interpolation-filters="sRGB">
<feFlood flood-opacity="0" result="BackgroundImageFix"/>
<feColorMatrix in="SourceAlpha" type="matrix" values="0 0 0 0 0 0 0 0 0 0 0 0 0 0 0 0 0 0 127 0" result="hardAlpha"/>
<feMorphology radius="3" operator="dilate" in="SourceAlpha" result="effect1_dropShadow_1_75"/>
<feOffset dy="4"/>
<feGaussianBlur stdDeviation="2"/>
<feComposite in2="hardAlpha" operator="out"/>
<feColorMatrix type="matrix" values="0 0 0 0 0 0 0 0 0 0 0 0 0 0 0 0 0 0 0.25 0"/>
<feBlend mode="normal" in2="BackgroundImageFix" result="effect1_dropShadow_1_75"/>
<feBlend mode="normal" in="SourceGraphic" in2="effect1_dropShadow_1_75" result="shape"/>
</filter>
</defs>
</svg>
