<svg width="210" height="47" viewBox="0 0 210 47" fill="none" xmlns="http://www.w3.org/2000/svg">
<g filter="url(#filter0_d_1_77)">
<rect x="7" y="3" width="160" height="33" fill="#140CB4"/>
</g>
<path d="M29.06 27.2C27.2867 27.2 25.96 26.6267 25.08 25.48C24.2133 24.32 23.78 22.5933 23.78 20.3V19.1C23.78 16.8067 24.2133 15.0867 25.08 13.94C25.96 12.78 27.2733 12.2 29.02 12.2C29.4733 12.2 29.9333 12.24 30.4 12.32C30.88 12.4 31.3067 12.5133 31.68 12.66V17.74H29.18V13.12L30.42 15.04C29.9533 14.64 29.46 14.44 28.94 14.44C28.0867 14.44 27.44 14.8467 27 15.66C26.56 16.4733 26.34 17.68 26.34 19.28V20.12C26.34 21.84 26.5733 23.08 27.04 23.84C27.52 24.5867 28.2867 24.96 29.34 24.96C29.6733 24.96 30.0467 24.9267 30.46 24.86C30.8733 24.7933 31.28 24.7067 31.68 24.6V26.92C31.2933 27 30.86 27.0667 30.38 27.12C29.9 27.1733 29.46 27.2 29.06 27.2ZM38 27.2C36.92 27.2 36.0533 26.98 35.4 26.54C34.76 26.0867 34.2933 25.3533 34 24.34C33.72 23.3267 33.58 21.98 33.58 20.3V19.1C33.58 17.4067 33.72 16.06 34 15.06C34.2933 14.0467 34.76 13.32 35.4 12.88C36.0533 12.4267 36.92 12.2 38 12.2C39.08 12.2 39.94 12.4267 40.58 12.88C41.2333 13.32 41.7 14.0467 41.98 15.06C42.2733 16.06 42.42 17.4067 42.42 19.1V20.3C42.42 21.98 42.2733 23.3267 41.98 24.34C41.7 25.3533 41.2333 26.0867 40.58 26.54C39.94 26.98 39.08 27.2 38 27.2ZM38 24.98C38.5067 24.98 38.8867 24.8533 39.14 24.6C39.4067 24.3333 39.5933 23.8533 39.7 23.16C39.8067 22.4533 39.86 21.44 39.86 20.12V19.28C39.86 17.96 39.8067 16.9533 39.7 16.26C39.5933 15.5533 39.4067 15.0733 39.14 14.82C38.8867 14.5533 38.5067 14.42 38 14.42C37.5067 14.42 37.1267 14.5533 36.86 14.82C36.5933 15.0733 36.4067 15.5533 36.3 16.26C36.1933 16.9533 36.14 17.96 36.14 19.28V20.12C36.14 21.44 36.1933 22.4533 36.3 23.16C36.4067 23.8533 36.5933 24.3333 36.86 24.6C37.1267 24.8533 37.5067 24.98 38 24.98ZM48 27.2C46.5733 27.2 45.5267 26.8733 44.86 26.22C44.2067 25.5533 43.88 24.5133 43.88 23.1V12.4H46.36V22.84C46.36 23.6133 46.4867 24.1667 46.74 24.5C46.9933 24.82 47.4133 24.98 48 24.98C48.5867 24.98 49.0067 24.82 49.26 24.5C49.5133 24.1667 49.64 23.6133 49.64 22.84V12.4H52.12V23.1C52.12 24.5133 51.7867 25.5533 51.12 26.22C50.4667 26.8733 49.4267 27.2 48 27.2ZM54.14 12.44C54.7533 12.3467 55.2867 12.2867 55.74 12.26C56.2067 12.22 56.6467 12.2 57.06 12.2C58.34 12.2 59.3667 12.36 60.14 12.68C60.9267 12.9867 61.4933 13.4867 61.84 14.18C62.2 14.8733 62.38 15.7867 62.38 16.92C62.38 18.0533 62.2 18.9667 61.84 19.66C61.4933 20.3533 60.9267 20.86 60.14 21.18C59.3667 21.4867 58.34 21.64 57.06 21.64C56.7267 21.64 56.4 21.6333 56.08 21.62C55.76 21.5933 55.4667 21.5667 55.2 21.54L56.04 19.4C56.28 19.44 56.5067 19.4667 56.72 19.48C56.9333 19.4933 57.1267 19.5 57.3 19.5C57.94 19.5 58.44 19.42 58.8 19.26C59.1733 19.0867 59.44 18.82 59.6 18.46C59.7733 18.0867 59.86 17.5933 59.86 16.98C59.86 16.3533 59.7733 15.86 59.6 15.5C59.44 15.1267 59.1733 14.86 58.8 14.7C58.44 14.5267 57.94 14.44 57.3 14.44C57.1267 14.44 56.9333 14.4467 56.72 14.46C56.52 14.4733 56.2867 14.5 56.02 14.54L56.62 13.86V27H54.14V12.44ZM59.8 27L56.08 20.56H58.78L62.58 27H59.8ZM67.48 27.2C66.9067 27.2 66.34 27.1533 65.78 27.06C65.22 26.98 64.6867 26.86 64.18 26.7V24.3C64.66 24.5 65.1667 24.66 65.7 24.78C66.2333 24.9 66.7467 24.96 67.24 24.96C67.96 24.96 68.5133 24.8267 68.9 24.56C69.2867 24.28 69.48 23.8733 69.48 23.34C69.48 23.02 69.4067 22.7333 69.26 22.48C69.1267 22.2133 68.8933 21.9533 68.56 21.7C68.24 21.4333 67.8 21.14 67.24 20.82C66.3867 20.3133 65.7067 19.8333 65.2 19.38C64.6933 18.9133 64.3267 18.42 64.1 17.9C63.8867 17.3667 63.78 16.7667 63.78 16.1C63.78 14.7667 64.2 13.7867 65.04 13.16C65.88 12.52 67.1267 12.2 68.78 12.2C69.2467 12.2 69.7267 12.2267 70.22 12.28C70.7133 12.32 71.2133 12.4 71.72 12.52V16.94H69.22V13.48L70.12 14.56C69.88 14.52 69.64 14.4933 69.4 14.48C69.16 14.4533 68.9333 14.44 68.72 14.44C67.88 14.44 67.2733 14.5733 66.9 14.84C66.5267 15.1067 66.34 15.54 66.34 16.14C66.34 16.4867 66.4133 16.8067 66.56 17.1C66.72 17.3933 66.9733 17.6867 67.32 17.98C67.68 18.2733 68.16 18.5933 68.76 18.94C69.5733 19.4067 70.22 19.86 70.7 20.3C71.18 20.7267 71.52 21.1867 71.72 21.68C71.9333 22.1733 72.04 22.7467 72.04 23.4C72.04 24.68 71.6667 25.6333 70.92 26.26C70.1733 26.8867 69.0267 27.2 67.48 27.2ZM74.42 27V12.4H81.72V14.52H76.96V18.24H81.52V20.32H76.96V24.88H81.72V27H74.42ZM87.48 27.2C86.9067 27.2 86.34 27.1533 85.78 27.06C85.22 26.98 84.6867 26.86 84.18 26.7V24.3C84.66 24.5 85.1667 24.66 85.7 24.78C86.2333 24.9 86.7467 24.96 87.24 24.96C87.96 24.96 88.5133 24.8267 88.9 24.56C89.2867 24.28 89.48 23.8733 89.48 23.34C89.48 23.02 89.4067 22.7333 89.26 22.48C89.1267 22.2133 88.8933 21.9533 88.56 21.7C88.24 21.4333 87.8 21.14 87.24 20.82C86.3867 20.3133 85.7067 19.8333 85.2 19.38C84.6933 18.9133 84.3267 18.42 84.1 17.9C83.8867 17.3667 83.78 16.7667 83.78 16.1C83.78 14.7667 84.2 13.7867 85.04 13.16C85.88 12.52 87.1267 12.2 88.78 12.2C89.2467 12.2 89.7267 12.2267 90.22 12.28C90.7133 12.32 91.2133 12.4 91.72 12.52V16.94H89.22V13.48L90.12 14.56C89.88 14.52 89.64 14.4933 89.4 14.48C89.16 14.4533 88.9333 14.44 88.72 14.44C87.88 14.44 87.2733 14.5733 86.9 14.84C86.5267 15.1067 86.34 15.54 86.34 16.14C86.34 16.4867 86.4133 16.8067 86.56 17.1C86.72 17.3933 86.9733 17.6867 87.32 17.98C87.68 18.2733 88.16 18.5933 88.76 18.94C89.5733 19.4067 90.22 19.86 90.7 20.3C91.18 20.7267 91.52 21.1867 91.72 21.68C91.9333 22.1733 92.04 22.7467 92.04 23.4C92.04 24.68 91.6667 25.6333 90.92 26.26C90.1733 26.8867 89.0267 27.2 87.48 27.2Z" fill="white"/>
<defs>
<filter id="filter0_d_1_77" x="0" y="0" width="174" height="47" filterUnits="userSpaceOnUse" color-interpolation-filters="sRGB">
<feFlood flood-opacity="0" result="BackgroundImageFix"/>
<feColorMatrix in="SourceAlpha" type="matrix" values="0 0 0 0 0 0 0 0 0 0 0 0 0 0 0 0 0 0 127 0" result="hardAlpha"/>
<feMorphology radius="3" operator="dilate" in="SourceAlpha" result="effect1_dropShadow_1_77"/>
<feOffset dy="4"/>
<feGaussianBlur stdDeviation="2"/>
<feComposite in2="hardAlpha" operator="out"/>
<feColorMatrix type="matrix" values="0 0 0 0 0 0 0 0 0 0 0 0 0 0 0 0 0 0 0.25 0"/>
<feBlend mode="normal" in2="BackgroundImageFix" result="effect1_dropShadow_1_77"/>
<feBlend mode="normal" in="SourceGraphic" in2="effect1_dropShadow_1_77" result="shape"/>
</filter>
</defs>
</svg>
