<svg width="163" height="48" viewBox="0 0 163 48" fill="none" xmlns="http://www.w3.org/2000/svg">
<path d="M12.9258 17.7539C11.668 17.7539 10.418 17.6641 9.17578 17.4844C7.93359 17.3125 6.76172 17.0273 5.66016 16.6289C4.55859 16.2227 3.58203 15.6836 2.73047 15.0117C1.87891 14.332 1.21094 13.5 0.726562 12.5156C0.242188 11.5234 0 10.3516 0 9C0 7.72656 0.226562 6.62109 0.679688 5.68359C1.14062 4.73828 1.77344 3.9375 2.57812 3.28125C3.38281 2.61719 4.30859 2.07422 5.35547 1.65234C6.40234 1.22266 7.51953 0.890625 8.70703 0.65625C9.90234 0.421875 11.1094 0.253906 12.3281 0.152344C12.9531 0.105469 13.5703 0.0820312 14.1797 0.0820312C14.5703 0.0820312 14.9531 0.09375 15.3281 0.117188C15.7109 0.132812 16.082 0.160156 16.4414 0.199219V5.54297C15.9727 5.48047 15.4766 5.42969 14.9531 5.39062C14.4297 5.35156 13.8789 5.33203 13.3008 5.33203C12.4883 5.33203 11.7578 5.44922 11.1094 5.68359C10.4609 5.91797 9.94922 6.29688 9.57422 6.82031C9.20703 7.33594 9.02344 8.03125 9.02344 8.90625C9.02344 9.875 9.20312 10.6445 9.5625 11.2148C9.92969 11.7852 10.4297 12.1953 11.0625 12.4453C11.7031 12.6875 12.4258 12.8203 13.2305 12.8438C13.6133 12.8438 14.1055 12.8008 14.707 12.7148C15.3164 12.6289 15.8945 12.5352 16.4414 12.4336V17.5781C15.8086 17.6484 15.1875 17.6953 14.5781 17.7188C13.9766 17.7422 13.4258 17.7539 12.9258 17.7539ZM30.1725 17.7891C29.0788 17.7891 27.9577 17.75 26.8092 17.6719C25.6608 17.5938 24.5553 17.4258 23.4928 17.168C22.4303 16.9102 21.4772 16.5117 20.6334 15.9727C19.7897 15.4258 19.1178 14.6953 18.6178 13.7812C18.1256 12.8594 17.8795 11.6953 17.8795 10.2891C17.8795 10.1328 17.8795 9.97266 17.8795 9.80859C17.8873 9.63672 17.8952 9.46484 17.903 9.29297L17.9616 5.69531C18.0006 4.52344 18.0241 3.53906 18.0319 2.74219C18.0475 1.94531 18.0983 1.24609 18.1842 0.644531L23.8678 0.386719L27.4889 0.316406C27.4733 0.628906 27.4616 0.941406 27.4538 1.25391C27.4538 1.56641 27.4538 1.87109 27.4538 2.16797L27.0905 9.82031C27.0827 9.875 27.0788 9.95703 27.0788 10.0664C27.0788 10.4727 27.1725 10.9062 27.36 11.3672C27.5475 11.8281 27.8795 12.2227 28.3561 12.5508C28.8327 12.8711 29.5084 13.0312 30.3834 13.0312C31.4303 13.0312 32.278 12.6758 32.9264 11.9648C33.5827 11.2539 33.9342 10.2344 33.9811 8.90625L34.2038 2.71875L34.2623 0.808594C35.0514 0.769531 35.8756 0.734375 36.735 0.703125C37.6022 0.671875 38.5709 0.640625 39.6413 0.609375C40.7116 0.578125 41.942 0.546875 43.3327 0.515625C43.3327 0.789062 43.3327 1.0625 43.3327 1.33594C43.3405 1.60937 43.3444 1.89453 43.3444 2.19141C43.3366 2.80078 43.317 3.47266 43.2858 4.20703C43.2545 4.93359 43.2194 5.66797 43.1803 6.41016C43.1413 7.14453 43.0983 7.82812 43.0514 8.46094C43.0123 9.09375 42.9694 9.625 42.9225 10.0547C42.8756 10.4766 42.8288 10.7383 42.7819 10.8398C42.5006 11.9883 42.0475 12.9648 41.4225 13.7695C40.7975 14.5742 40.0514 15.2383 39.1842 15.7617C38.317 16.2852 37.3756 16.6953 36.36 16.9922C35.3522 17.2891 34.317 17.4961 33.2545 17.6133C32.1998 17.7305 31.1725 17.7891 30.1725 17.7891ZM59.8294 18.2344C59.72 18.0312 59.552 17.7031 59.3255 17.25C59.0989 16.7969 58.8411 16.2812 58.552 15.7031C58.2708 15.125 57.9856 14.5391 57.6966 13.9453C57.4153 13.3438 57.1575 12.793 56.9231 12.293C56.6966 11.7852 56.5208 11.3867 56.3958 11.0977L53.5247 11.2969L53.2903 17.1211C53.2903 17.1836 53.263 17.2188 53.2083 17.2266C52.7239 17.25 52.1419 17.2891 51.4622 17.3438C50.7903 17.4062 50.1302 17.4609 49.4817 17.5078C48.8333 17.5547 48.302 17.5781 47.888 17.5781L45.1458 17.6719C45.1458 16.6094 45.1692 15.3594 45.2161 13.9219C45.2708 12.4844 45.3255 11.0625 45.3802 9.65625L45.4505 7.72266L45.5677 0.890625C45.5989 0.890625 45.6966 0.890625 45.8606 0.890625C46.0247 0.882812 46.3294 0.871094 46.7747 0.855469C47.22 0.832031 47.8763 0.796875 48.7434 0.75C49.6106 0.703125 50.7552 0.640625 52.177 0.5625C53.5989 0.476563 55.3763 0.371094 57.5091 0.246094C58.8528 0.246094 60.138 0.292969 61.3645 0.386719C62.5989 0.480469 63.6966 0.691406 64.6575 1.01953C65.6184 1.33984 66.3763 1.83203 66.9309 2.49609C67.4856 3.15234 67.763 4.05078 67.763 5.19141C67.763 5.98828 67.5598 6.69531 67.1536 7.3125C66.7552 7.92188 66.2356 8.4375 65.595 8.85938C64.9622 9.28125 64.2903 9.61328 63.5794 9.85547C63.845 10.1523 64.1614 10.543 64.5286 11.0273C64.9036 11.5117 65.2981 12.0391 65.7122 12.6094C66.1341 13.1797 66.552 13.7461 66.9661 14.3086C67.3802 14.8711 67.763 15.3906 68.1145 15.8672C68.4661 16.3438 68.7552 16.7227 68.9817 17.0039L59.8294 18.2344ZM53.7005 8.0625C54.4817 7.97656 55.2161 7.90625 55.9036 7.85156C56.5989 7.78906 57.2083 7.70312 57.7317 7.59375C58.263 7.47656 58.677 7.30078 58.9739 7.06641C59.2786 6.83203 59.4309 6.49219 59.4309 6.04688C59.4309 5.64062 59.263 5.34375 58.927 5.15625C58.5989 4.96094 58.2122 4.83594 57.7669 4.78125C57.3294 4.71875 56.9388 4.6875 56.595 4.6875C56.0247 4.6875 55.5442 4.69531 55.1536 4.71094C54.763 4.72656 54.345 4.74219 53.8997 4.75781L53.7005 8.0625ZM85.2909 18.2344C85.1816 18.0312 85.0136 17.7031 84.787 17.25C84.5605 16.7969 84.3027 16.2812 84.0136 15.7031C83.7323 15.125 83.4472 14.5391 83.1581 13.9453C82.8769 13.3438 82.6191 12.793 82.3847 12.293C82.1581 11.7852 81.9823 11.3867 81.8573 11.0977L78.9863 11.2969L78.7519 17.1211C78.7519 17.1836 78.7245 17.2188 78.6698 17.2266C78.1855 17.25 77.6034 17.2891 76.9238 17.3438C76.2519 17.4062 75.5917 17.4609 74.9433 17.5078C74.2948 17.5547 73.7636 17.5781 73.3495 17.5781L70.6073 17.6719C70.6073 16.6094 70.6308 15.3594 70.6777 13.9219C70.7323 12.4844 70.787 11.0625 70.8417 9.65625L70.912 7.72266L71.0292 0.890625C71.0605 0.890625 71.1581 0.890625 71.3222 0.890625C71.4863 0.882812 71.7909 0.871094 72.2363 0.855469C72.6816 0.832031 73.3378 0.796875 74.205 0.75C75.0722 0.703125 76.2167 0.640625 77.6386 0.5625C79.0605 0.476563 80.8378 0.371094 82.9706 0.246094C84.3144 0.246094 85.5995 0.292969 86.8261 0.386719C88.0605 0.480469 89.1581 0.691406 90.1191 1.01953C91.08 1.33984 91.8378 1.83203 92.3925 2.49609C92.9472 3.15234 93.2245 4.05078 93.2245 5.19141C93.2245 5.98828 93.0214 6.69531 92.6152 7.3125C92.2167 7.92188 91.6972 8.4375 91.0566 8.85938C90.4238 9.28125 89.7519 9.61328 89.0409 9.85547C89.3066 10.1523 89.623 10.543 89.9902 11.0273C90.3652 11.5117 90.7597 12.0391 91.1738 12.6094C91.5956 13.1797 92.0136 13.7461 92.4277 14.3086C92.8417 14.8711 93.2245 15.3906 93.5761 15.8672C93.9277 16.3438 94.2167 16.7227 94.4433 17.0039L85.2909 18.2344ZM79.162 8.0625C79.9433 7.97656 80.6777 7.90625 81.3652 7.85156C82.0605 7.78906 82.6698 7.70312 83.1933 7.59375C83.7245 7.47656 84.1386 7.30078 84.4355 7.06641C84.7402 6.83203 84.8925 6.49219 84.8925 6.04688C84.8925 5.64062 84.7245 5.34375 84.3886 5.15625C84.0605 4.96094 83.6738 4.83594 83.2284 4.78125C82.7909 4.71875 82.4003 4.6875 82.0566 4.6875C81.4863 4.6875 81.0058 4.69531 80.6152 4.71094C80.2245 4.72656 79.8066 4.74219 79.3613 4.75781L79.162 8.0625ZM115.71 17.5078C114.78 17.5 113.948 17.4961 113.213 17.4961C112.487 17.4961 111.756 17.4922 111.022 17.4844C110.288 17.4844 109.444 17.4844 108.491 17.4844C107.952 17.4844 107.307 17.4766 106.557 17.4609C105.815 17.4453 105.026 17.4258 104.19 17.4023C103.362 17.3867 102.549 17.3633 101.753 17.332C100.963 17.3086 100.241 17.2852 99.5845 17.2617C98.9361 17.2461 98.4166 17.2305 98.0259 17.2148C97.6431 17.1992 97.4517 17.1914 97.4517 17.1914L95.0963 17.25C95.0963 17.25 95.108 17.0195 95.1314 16.5586C95.1548 16.0898 95.1861 15.4648 95.2252 14.6836C95.2642 13.9023 95.3072 13.0234 95.3541 12.0469C95.4009 11.0625 95.4478 10.0469 95.4947 9C95.5494 7.94531 95.6002 6.92578 95.647 5.94141C95.6939 4.94922 95.733 4.05078 95.7642 3.24609C95.8033 2.44141 95.8345 1.79297 95.858 1.30078C95.8814 0.800781 95.8931 0.53125 95.8931 0.492188C96.1509 0.484375 96.3541 0.480469 96.5025 0.480469C96.6509 0.472656 96.8111 0.46875 96.983 0.46875C97.1548 0.460937 97.4048 0.449219 97.733 0.433594H105.268L113.682 0.246094C114.049 0.246094 114.436 0.253906 114.842 0.269531C115.249 0.277344 115.628 0.320312 115.979 0.398438L115.499 4.69922C113.92 4.83984 112.143 4.91406 110.167 4.92188C108.198 4.92969 106.21 4.94141 104.202 4.95703C104.17 5.20703 104.147 5.49219 104.131 5.8125C104.124 6.13281 104.1 6.5 104.061 6.91406C105.085 6.89844 106.073 6.89062 107.026 6.89062C107.979 6.88281 108.811 6.87891 109.522 6.87891C109.663 6.87891 109.807 6.88281 109.956 6.89062C110.104 6.89062 110.256 6.89062 110.413 6.89062C110.569 6.89062 110.725 6.88672 110.881 6.87891C111.038 6.87109 111.194 6.85547 111.35 6.83203V6.92578C111.35 7.12109 111.327 7.45312 111.28 7.92188C111.233 8.39062 111.17 8.88281 111.092 9.39844C111.022 9.90625 110.94 10.3281 110.846 10.6641C110.823 10.6719 110.612 10.6836 110.213 10.6992C109.815 10.707 109.053 10.7109 107.928 10.7109C107.655 10.7109 107.354 10.7109 107.026 10.7109C106.706 10.7031 106.358 10.6992 105.983 10.6992C105.639 10.6992 105.295 10.6992 104.952 10.6992C104.608 10.6992 104.26 10.7031 103.909 10.7109L103.78 13.1367H116.085C116.085 13.9336 116.069 14.5781 116.038 15.0703C116.014 15.5547 115.983 15.9414 115.944 16.2305C115.905 16.5195 115.862 16.7578 115.815 16.9453C115.776 17.1328 115.741 17.3203 115.71 17.5078ZM132.359 17.7539L123.628 9.92578C123.597 11.2539 123.57 12.3438 123.546 13.1953C123.523 14.0391 123.503 14.707 123.488 15.1992C123.48 15.6836 123.472 16.0391 123.464 16.2656C123.464 16.4844 123.464 16.6367 123.464 16.7227V16.8516C122.878 16.8906 122.187 16.9688 121.39 17.0859C120.593 17.2031 119.761 17.3125 118.894 17.4141C118.027 17.5156 117.191 17.5664 116.386 17.5664C116.339 17.2695 116.296 16.9609 116.257 16.6406C116.226 16.3203 116.21 15.9805 116.21 15.6211C116.273 13.918 116.335 12.1172 116.398 10.2188C116.468 8.32031 116.534 6.44922 116.597 4.60547V0.925781L126.898 0C126.976 0.0859375 127.187 0.328125 127.53 0.726562C127.882 1.125 128.312 1.61328 128.82 2.19141C129.335 2.76953 129.874 3.38281 130.437 4.03125C131.007 4.67188 131.55 5.28906 132.066 5.88281C132.589 6.47656 133.03 6.98047 133.39 7.39453V2.23828C133.405 1.91797 133.421 1.62109 133.437 1.34766C133.46 1.07422 133.507 0.820312 133.577 0.585938L138.675 0.292969C138.964 0.285156 139.257 0.28125 139.554 0.28125C139.859 0.273437 140.155 0.269531 140.445 0.269531C140.484 0.558594 140.515 0.867188 140.538 1.19531C140.562 1.52344 140.573 1.875 140.573 2.25C140.534 2.70312 140.507 3.29688 140.491 4.03125C140.476 4.75781 140.468 5.41406 140.468 6C140.468 6.875 140.464 7.83984 140.456 8.89453C140.448 9.94922 140.437 10.9492 140.421 11.8945L140.386 14.543V14.5547C140.386 14.8984 140.394 15.2344 140.409 15.5625C140.425 15.8906 140.464 16.2031 140.527 16.5C140.269 16.5469 139.98 16.5859 139.659 16.6172C139.347 16.6484 138.913 16.7031 138.359 16.7812C137.812 16.8516 137.058 16.9609 136.097 17.1094C135.144 17.2578 133.898 17.4727 132.359 17.7539ZM146.711 17.5195H146.652C146.652 17.2852 146.652 17.0352 146.652 16.7695C146.66 16.5039 146.672 16.1641 146.687 15.75C146.703 15.3359 146.726 14.793 146.758 14.1211L146.898 9.38672C146.93 8.46484 146.957 7.68359 146.98 7.04297C147.004 6.39453 147.035 5.68359 147.074 4.91016H140.676C140.683 4.79297 140.703 4.5625 140.734 4.21875C140.765 3.86719 140.801 3.46484 140.84 3.01172C140.887 2.55859 140.933 2.11328 140.98 1.67578C141.035 1.23828 141.086 0.875 141.133 0.585938C142.039 0.554687 143.098 0.527344 144.308 0.503906C145.519 0.472656 146.808 0.445312 148.176 0.421875C149.551 0.390625 150.941 0.363281 152.348 0.339844C153.762 0.316406 155.129 0.296875 156.449 0.28125C157.777 0.265625 158.988 0.253906 160.082 0.246094C160.418 0.246094 160.754 0.25 161.09 0.257812C161.426 0.265625 161.738 0.273437 162.027 0.28125C161.988 0.617188 161.926 1.07812 161.84 1.66406C161.754 2.24219 161.656 2.83203 161.547 3.43359C161.437 4.02734 161.32 4.51953 161.195 4.91016H155.09L155.019 7.44141C154.996 8.01953 154.969 8.70703 154.937 9.50391C154.906 10.293 154.871 11.1055 154.832 11.9414C154.801 12.7773 154.773 13.5586 154.75 14.2852C154.726 15.0117 154.707 15.6055 154.691 16.0664C154.676 16.5195 154.668 16.75 154.668 16.7578C154.543 16.7656 154.223 16.8008 153.707 16.8633C153.191 16.918 152.578 16.9805 151.867 17.0508C151.164 17.1211 150.453 17.1914 149.734 17.2617C149.015 17.3398 148.379 17.4023 147.824 17.4492C147.277 17.4961 146.906 17.5195 146.711 17.5195ZM6.63281 47.2461L0.550781 32.1758C0.488281 31.957 0.402344 31.6953 0.292969 31.3906C0.183594 31.0859 0.109375 30.8438 0.0703125 30.6641C0.0546875 30.5703 0.046875 30.4883 0.046875 30.418C0.046875 30.3477 0.046875 30.2695 0.046875 30.1836C0.046875 29.8633 0.449219 29.6523 1.25391 29.5508C2.05859 29.4414 3.40234 29.2812 5.28516 29.0703C5.93359 29.0078 6.44531 28.9648 6.82031 28.9414C7.19531 28.9102 7.5 28.8945 7.73438 28.8945C7.75781 28.8945 7.85547 28.9102 8.02734 28.9414C8.19922 28.9648 8.30078 29.0312 8.33203 29.1406L11.0625 37.8945L13.6523 29.832C13.6914 29.7227 13.7383 29.6406 13.793 29.5859C13.8555 29.5312 13.9961 29.4883 14.2148 29.457C14.4336 29.418 14.7969 29.3711 15.3047 29.3164C15.8125 29.2539 16.5391 29.1719 17.4844 29.0703C18.1328 29.0078 18.5703 28.9648 18.7969 28.9414C19.0312 28.9102 19.2656 28.8945 19.5 28.8945C19.5234 28.8945 19.6211 28.9102 19.793 28.9414C19.9648 28.9727 20.0664 29.0391 20.0977 29.1406L23.2969 37.8945L25.5352 30.1602C25.6055 30.0508 25.668 29.9609 25.7227 29.8906C25.7773 29.8125 25.8906 29.7578 26.0625 29.7266L30.7969 29.0234C31.1641 28.9844 31.4844 28.9492 31.7578 28.918C32.0312 28.8867 32.2656 28.8711 32.4609 28.8711C32.9922 28.8711 33.3555 28.9062 33.5508 28.9766C33.7461 29.0391 33.8438 29.1328 33.8438 29.2578C33.8438 29.3281 33.8203 29.4062 33.7734 29.4922L26.8945 45.3828C26.707 45.7656 26.6055 46.0586 26.5898 46.2617C26.5742 46.4648 26.457 46.5977 26.2383 46.6602C26.043 46.7148 25.6719 46.7734 25.125 46.8359C24.5859 46.9062 23.9727 46.9727 23.2852 47.0352C22.5977 47.0977 21.9336 47.1484 21.293 47.1875C20.6602 47.2266 20.1523 47.2461 19.7695 47.2461L16.7695 38.3398L14.8125 44.6797C14.6875 45.1016 14.5039 45.5234 14.2617 45.9453C14.0195 46.3594 13.7891 46.5977 13.5703 46.6602C13.4141 46.6992 13.125 46.7461 12.7031 46.8008C12.2891 46.8555 11.8008 46.9062 11.2383 46.9531C10.6758 47.0078 10.0977 47.0547 9.50391 47.0938C8.91797 47.1406 8.36719 47.1758 7.85156 47.1992C7.34375 47.2305 6.9375 47.2461 6.63281 47.2461ZM45.735 46.7539C44.5944 46.7539 43.4147 46.6719 42.1959 46.5078C40.985 46.3438 39.817 46.0703 38.692 45.6875C37.567 45.3047 36.5553 44.7852 35.6569 44.1289C34.7663 43.4727 34.0553 42.6562 33.5241 41.6797C33.0006 40.6953 32.7389 39.5195 32.7389 38.1523C32.7389 36.8711 32.985 35.7539 33.4772 34.8008C33.9694 33.8398 34.6256 33.0195 35.4459 32.3398C36.2663 31.6523 37.1725 31.0859 38.1647 30.6406C39.1569 30.1875 40.1608 29.832 41.1764 29.5742C42.192 29.3164 43.1413 29.1367 44.0241 29.0352C44.9147 28.9258 45.653 28.8711 46.2389 28.8711C47.4811 28.8711 48.7428 28.9492 50.0241 29.1055C51.3053 29.2617 52.5319 29.5273 53.7038 29.9023C54.8756 30.2695 55.9225 30.7773 56.8444 31.4258C57.7663 32.0742 58.4967 32.8906 59.0358 33.875C59.5748 34.8516 59.8444 36.0273 59.8444 37.4023C59.8444 38.9023 59.5553 40.1875 58.9772 41.2578C58.3991 42.3281 57.6217 43.2227 56.6452 43.9414C55.6686 44.6523 54.567 45.2148 53.3405 45.6289C52.1139 46.0352 50.8444 46.3242 49.5319 46.4961C48.2272 46.668 46.9616 46.7539 45.735 46.7539ZM46.2975 41.9961C47.6491 41.957 48.6959 41.582 49.4381 40.8711C50.1803 40.1523 50.5514 39.0391 50.5514 37.5312C50.5514 36.5625 50.3756 35.8047 50.0241 35.2578C49.6803 34.7031 49.1998 34.3125 48.5827 34.0859C47.9655 33.8516 47.2467 33.7344 46.4264 33.7344C45.1061 33.7344 44.0592 34.0898 43.2858 34.8008C42.5123 35.5117 42.1256 36.5664 42.1256 37.9648C42.1256 39.4336 42.5006 40.4844 43.2506 41.1172C44.0084 41.7422 45.0241 42.0352 46.2975 41.9961ZM76.3997 47.2344C76.2903 47.0312 76.1223 46.7031 75.8958 46.25C75.6692 45.7969 75.4114 45.2812 75.1223 44.7031C74.8411 44.125 74.5559 43.5391 74.2669 42.9453C73.9856 42.3438 73.7278 41.793 73.4934 41.293C73.2669 40.7852 73.0911 40.3867 72.9661 40.0977L70.095 40.2969L69.8606 46.1211C69.8606 46.1836 69.8333 46.2188 69.7786 46.2266C69.2942 46.25 68.7122 46.2891 68.0325 46.3438C67.3606 46.4062 66.7005 46.4609 66.052 46.5078C65.4036 46.5547 64.8723 46.5781 64.4583 46.5781L61.7161 46.6719C61.7161 45.6094 61.7395 44.3594 61.7864 42.9219C61.8411 41.4844 61.8958 40.0625 61.9505 38.6562L62.0208 36.7227L62.138 29.8906C62.1692 29.8906 62.2669 29.8906 62.4309 29.8906C62.595 29.8828 62.8997 29.8711 63.345 29.8555C63.7903 29.832 64.4466 29.7969 65.3138 29.75C66.1809 29.7031 67.3255 29.6406 68.7473 29.5625C70.1692 29.4766 71.9466 29.3711 74.0794 29.2461C75.4231 29.2461 76.7083 29.293 77.9348 29.3867C79.1692 29.4805 80.2669 29.6914 81.2278 30.0195C82.1888 30.3398 82.9466 30.832 83.5013 31.4961C84.0559 32.1523 84.3333 33.0508 84.3333 34.1914C84.3333 34.9883 84.1302 35.6953 83.7239 36.3125C83.3255 36.9219 82.8059 37.4375 82.1653 37.8594C81.5325 38.2812 80.8606 38.6133 80.1497 38.8555C80.4153 39.1523 80.7317 39.543 81.0989 40.0273C81.4739 40.5117 81.8684 41.0391 82.2825 41.6094C82.7044 42.1797 83.1223 42.7461 83.5364 43.3086C83.9505 43.8711 84.3333 44.3906 84.6848 44.8672C85.0364 45.3438 85.3255 45.7227 85.552 46.0039L76.3997 47.2344ZM70.2708 37.0625C71.052 36.9766 71.7864 36.9062 72.4739 36.8516C73.1692 36.7891 73.7786 36.7031 74.302 36.5938C74.8333 36.4766 75.2473 36.3008 75.5442 36.0664C75.8489 35.832 76.0013 35.4922 76.0013 35.0469C76.0013 34.6406 75.8333 34.3438 75.4973 34.1562C75.1692 33.9609 74.7825 33.8359 74.3372 33.7812C73.8997 33.7188 73.5091 33.6875 73.1653 33.6875C72.595 33.6875 72.1145 33.6953 71.7239 33.7109C71.3333 33.7266 70.9153 33.7422 70.47 33.7578L70.2708 37.0625ZM103.279 47.1758L101.252 45.5117C100.768 45.1055 100.225 44.6406 99.623 44.1172C99.0292 43.5859 98.4316 43.0547 97.83 42.5234C97.2363 41.9844 96.7011 41.4922 96.2245 41.0469C95.748 40.5938 95.3925 40.2422 95.1581 39.9922C95.1503 40.4609 95.1347 41.0156 95.1113 41.6562C95.0956 42.2891 95.0761 42.9102 95.0527 43.5195C95.0292 44.1289 95.0097 44.6484 94.9941 45.0781C94.9784 45.5 94.9706 45.7422 94.9706 45.8047V45.8516C94.8222 45.8672 94.4863 45.9023 93.9628 45.957C93.4394 46.0039 92.8183 46.0625 92.0995 46.1328C91.3886 46.2031 90.6581 46.2734 89.9081 46.3438C89.1581 46.4141 88.4706 46.4688 87.8456 46.5078C87.2284 46.5547 86.7636 46.5781 86.4511 46.5781C86.3964 46.25 86.3534 45.9102 86.3222 45.5586C86.2909 45.1992 86.2753 44.8242 86.2753 44.4336L86.498 36.9805C86.5605 35.7227 86.6152 34.5859 86.662 33.5703C86.7167 32.5469 86.7441 31.6406 86.7441 30.8516C86.7441 30.5703 86.7284 30.3516 86.6972 30.1953C86.8456 30.125 87.1347 30.0508 87.5644 29.9727C87.9941 29.8867 88.5058 29.8008 89.0995 29.7148C89.6933 29.6289 90.3105 29.5508 90.9511 29.4805C91.5917 29.4023 92.1972 29.3438 92.7675 29.3047C93.3456 29.2578 93.8261 29.2344 94.2089 29.2344C94.4042 29.2344 94.5956 29.2383 94.7831 29.2461C94.9706 29.2461 95.1581 29.2461 95.3456 29.2461C95.4003 29.5742 95.4355 29.918 95.4511 30.2773C95.4745 30.6367 95.4863 31.0234 95.4863 31.4375C95.4316 32.2422 95.3886 32.9961 95.3573 33.6992C95.3339 34.4023 95.3105 35.0977 95.287 35.7852L100.15 29.6445L100.912 28.7539L105.037 30.1953L109.396 31.5898V31.5664C109.404 31.5742 109.412 31.582 109.42 31.5898C109.435 31.5977 109.443 31.6016 109.443 31.6016L109.396 31.5898V31.6719L107.908 33.2422L103.338 37.8359L111.025 43.8594L104.521 46.543L103.279 47.1758ZM110.694 46.4727C110.686 46.2461 110.678 46.0234 110.67 45.8047C110.67 45.5859 110.67 45.2656 110.67 44.8438V42.1133H114.643L115.381 42.1484V45.5703L115.335 46.4727H110.694ZM116.585 46.4727C116.577 46.2461 116.57 46.0234 116.562 45.8047C116.562 45.5859 116.562 45.2656 116.562 44.8438V42.1133H120.534L121.273 42.1484V45.5703L121.226 46.4727H116.585ZM122.476 46.4727C122.469 46.2461 122.461 46.0234 122.453 45.8047C122.453 45.5859 122.453 45.2656 122.453 44.8438V42.1133H126.426L127.164 42.1484V45.5703L127.117 46.4727H122.476Z" fill="url(#paint0_linear_1_36)"/>
<defs>
<linearGradient id="paint0_linear_1_36" x1="133.441" y1="-5.77344" x2="143.766" y2="32.9758" gradientUnits="userSpaceOnUse">
<stop stop-color="#FB6E10"/>
<stop offset="1" stop-color="#FFDD00"/>
</linearGradient>
</defs>
</svg>
