<svg width="702" height="98" viewBox="0 0 702 98" fill="none" xmlns="http://www.w3.org/2000/svg">
<g filter="url(#filter0_d_1_3)">
<path d="M63.5 91.625V88.5625C66.2083 87.9792 68.3958 87.3542 70.0625 86.6875C71.7708 86.0208 72.625 85.4167 72.625 84.875L72 22.25L82.4375 18.8125L83.0625 84.875C83.0625 85.3333 83.7917 85.9167 85.25 86.625C86.7083 87.3333 88.8542 87.9792 91.6875 88.5625V91.625H63.5ZM90.375 18.625C88.5833 18.625 86.4583 19.0833 84 20C81.5417 20.9167 79.2708 22.1042 77.1875 23.5625C75.1042 24.9792 73.7292 26.4583 73.0625 28L46.1875 91.625H45.9375C45.0208 86.5417 44.5 82.9583 44.375 80.875C44.2917 78.7917 44.5208 77.1042 45.0625 75.8125L68.5625 20.625C69.5625 18.2083 70.2708 16.7708 70.6875 16.3125C71.1458 15.8125 71.75 15.5625 72.5 15.5625H90.375V18.625ZM46.625 75.6875C47.1667 76.9375 47.4167 78.6458 47.375 80.8125C47.375 82.9375 46.8958 86.5417 45.9375 91.625H42.5L15.25 27.9375C14.2083 25.4792 12.8125 23.5833 11.0625 22.25C9.3125 20.9167 7.5 19.9792 5.625 19.4375C3.75 18.8958 2.08333 18.625 0.625 18.625V15.5625H18.625C19.4167 15.5625 20.0417 15.8542 20.5 16.4375C20.9583 17.0208 21.6458 18.4167 22.5625 20.625L46.625 75.6875ZM0 91.625V88.5625C5.70833 87.3958 8.5625 86.1667 8.5625 84.875L9.1875 19.875L16.5625 18.375L15.875 84.875C15.875 85.3333 16.5833 85.9167 18 86.625C19.4167 87.3333 21.5625 87.9792 24.4375 88.5625V91.625H0ZM110.448 17.0625C110.448 19.3958 109.718 21.375 108.26 23C106.843 24.5833 105.031 25.375 102.823 25.375C98.9892 25.375 97.0725 23.4167 97.0725 19.5C97.0725 17.125 97.8225 15.1458 99.3225 13.5625C100.823 11.9792 102.593 11.1875 104.635 11.1875C106.427 11.1875 107.843 11.6875 108.885 12.6875C109.927 13.6458 110.448 15.1042 110.448 17.0625ZM90.3225 91.625V88.625C95.6975 87.5417 98.385 86.3333 98.385 85V52.375C98.385 49.6667 98.26 47.6458 98.01 46.3125C97.8017 44.9375 97.135 44 96.01 43.5C94.885 42.9583 92.9892 42.5625 90.3225 42.3125V39.5C93.0308 39 95.8017 38.3542 98.635 37.5625C101.468 36.7292 103.968 35.8333 106.135 34.875H108.573V85C108.573 85.4583 109.198 86.0417 110.448 86.75C111.739 87.4583 113.802 88.0833 116.635 88.625V91.625H90.3225ZM113.208 91.625V88.625C116.583 88.0417 118.874 87.4583 120.083 86.875C121.291 86.2917 121.895 85.6667 121.895 85V15.5C121.895 13.1667 121.666 11.5 121.208 10.5C120.791 9.45833 119.999 8.77083 118.833 8.4375C117.708 8.10417 116.041 7.8125 113.833 7.5625V4.6875C116.916 4.10417 119.708 3.5 122.208 2.875C124.749 2.20833 127.291 1.25 129.833 0L132.083 2.125V85C132.083 85.5833 132.728 86.2083 134.02 86.875C135.353 87.5 137.603 88.0833 140.77 88.625V91.625H113.208ZM184.967 58.8125C184.301 59.6042 183.301 60.375 181.967 61.125C180.634 61.875 179.342 62.5 178.092 63H144.03L144.092 57.3125H171.967C172.884 57.3125 173.488 57.1667 173.78 56.875C174.072 56.5833 174.217 56.0208 174.217 55.1875C174.217 53.7292 173.905 51.9167 173.28 49.75C172.697 47.5417 171.572 45.5833 169.905 43.875C168.238 42.1667 165.801 41.3125 162.592 41.3125C158.051 41.3125 154.488 43.2917 151.905 47.25C149.363 51.2083 148.092 56.25 148.092 62.375C148.092 66.4583 148.738 70.2292 150.03 73.6875C151.363 77.1458 153.28 79.9167 155.78 82C158.28 84.0833 161.259 85.125 164.717 85.125C166.384 85.125 167.988 84.9792 169.53 84.6875C171.072 84.3542 172.842 83.625 174.842 82.5C176.842 81.375 179.301 79.6458 182.217 77.3125C182.717 77.6042 183.197 78.0625 183.655 78.6875C184.155 79.3125 184.488 79.7917 184.655 80.125C181.155 83.9167 178.134 86.7708 175.592 88.6875C173.051 90.5625 170.634 91.8125 168.342 92.4375C166.092 93.0625 163.572 93.375 160.78 93.375C156.697 93.375 152.905 92.25 149.405 90C145.905 87.7083 143.092 84.5 140.967 80.375C138.842 76.25 137.78 71.4167 137.78 65.875C137.78 60.5417 138.884 55.5625 141.092 50.9375C143.342 46.3125 146.488 42.5833 150.53 39.75C152.363 38.4583 154.551 37.3333 157.092 36.375C159.676 35.375 162.113 34.875 164.405 34.875C169.53 34.875 173.592 36.125 176.592 38.625C179.592 41.125 181.738 44.2292 183.03 47.9375C184.322 51.6042 184.967 55.2292 184.967 58.8125ZM218.603 91.625V88.625C223.978 87.2083 226.665 86 226.665 85V54.9375C226.665 50.2292 226.123 47.125 225.04 45.625C223.998 44.125 222.165 43.375 219.54 43.375C217.29 43.375 214.561 44.4375 211.353 46.5625C208.144 48.6875 204.644 52.4167 200.853 57.75V85C200.853 85.5833 201.561 86.2083 202.978 86.875C204.436 87.5 206.415 88.0833 208.915 88.625V91.625H182.603V88.625C185.186 87.9167 187.165 87.3125 188.54 86.8125C189.957 86.2708 190.665 85.6667 190.665 85V49.9375C190.665 47.8958 190.54 46.3958 190.29 45.4375C190.04 44.4375 189.353 43.75 188.228 43.375C187.103 42.9583 185.228 42.6042 182.603 42.3125V39.5C185.519 39.0417 188.186 38.4375 190.603 37.6875C193.061 36.8958 195.457 35.9583 197.79 34.875L199.978 37.0625L200.603 50.125C204.311 45.2083 208.353 41.4375 212.728 38.8125C217.144 36.1875 220.873 34.875 223.915 34.875C227.29 34.875 230.29 35.9583 232.915 38.125C235.54 40.25 236.853 43.6667 236.853 48.375V85C236.853 85.5417 237.436 86.0833 238.603 86.625C239.769 87.125 241.894 87.7917 244.978 88.625V91.625H218.603ZM292.238 86.3125C288.946 88.6042 286.029 90.3542 283.488 91.5625C280.988 92.7708 279.154 93.375 277.988 93.375C276.571 93.375 275.404 92.3542 274.488 90.3125C273.571 88.2292 273.113 85.4375 273.113 81.9375V50.375C273.113 47.75 272.467 45.5625 271.175 43.8125C269.883 42.0208 267.446 41.1667 263.863 41.25C261.529 41.2917 259.383 42.0417 257.425 43.5C255.508 44.9167 254.654 46.8125 254.863 49.1875C254.904 49.5625 254.446 49.9792 253.488 50.4375C252.529 50.8958 251.363 51.3333 249.988 51.75C248.613 52.1667 247.3 52.5 246.05 52.75C244.842 52.9583 244.008 53 243.55 52.875L242.613 50.375C243.821 47.5833 245.842 45.0208 248.675 42.6875C251.55 40.3542 254.8 38.4792 258.425 37.0625C262.092 35.6042 265.717 34.875 269.3 34.875C273.883 34.875 277.363 36.0625 279.738 38.4375C282.113 40.8125 283.3 44.0417 283.3 48.125V80.125C283.3 83.2083 284.071 84.75 285.613 84.75C286.196 84.75 286.883 84.6667 287.675 84.5C288.508 84.2917 289.696 83.8542 291.238 83.1875L292.238 86.3125ZM273.675 63C269.508 63.6667 266.238 64.3333 263.863 65C261.529 65.6667 259.758 66.3542 258.55 67.0625C257.342 67.7708 256.321 68.5417 255.488 69.375C254.488 70.4167 253.654 71.6042 252.988 72.9375C252.363 74.2708 252.05 75.8333 252.05 77.625C252.05 80.625 252.8 82.6042 254.3 83.5625C255.842 84.5208 257.133 85 258.175 85C260.342 85 262.696 84.4167 265.238 83.25C267.821 82.0417 270.633 80.0625 273.675 77.3125L274.175 82.3125C270.508 86.2708 266.842 89.1042 263.175 90.8125C259.55 92.5208 256.425 93.375 253.8 93.375C251.842 93.375 249.883 92.9167 247.925 92C245.967 91.125 244.321 89.7292 242.988 87.8125C241.696 85.8958 241.05 83.4167 241.05 80.375C241.05 77.4583 241.571 75.0208 242.613 73.0625C243.654 71.0625 244.883 69.3542 246.3 67.9375C247.592 66.6458 249.154 65.4375 250.988 64.3125C252.863 63.1875 255.55 62.125 259.05 61.125C262.592 60.125 267.467 59.1667 273.675 58.25V63ZM376.383 73C376.299 74.7083 376.195 76.7292 376.07 79.0625C375.987 81.3542 375.903 83.625 375.82 85.875C375.737 88.125 375.674 90.0417 375.633 91.625H321.633L319.758 88.8125L361.633 22.0625H335.32C334.028 22.0625 332.57 23.1042 330.945 25.1875C329.362 27.2292 328.133 30.3542 327.258 34.5625L323.383 33.75L325.195 14.5625C327.403 15.0625 329.258 15.3542 330.758 15.4375C332.299 15.5208 334.237 15.5625 336.57 15.5625H374.133L375.758 18.25L334.258 85.125H364.445C366.153 85.125 367.549 84.1667 368.633 82.25C369.758 80.3333 371.091 76.9167 372.633 72L376.383 73ZM374.268 91.625V88.625C377.643 88.0417 379.934 87.4583 381.143 86.875C382.351 86.2917 382.955 85.6667 382.955 85V15.5C382.955 13.1667 382.726 11.5 382.268 10.5C381.851 9.45833 381.059 8.77083 379.893 8.4375C378.768 8.10417 377.101 7.8125 374.893 7.5625V4.6875C377.976 4.10417 380.768 3.5 383.268 2.875C385.809 2.20833 388.351 1.25 390.893 0L393.143 2.125V85C393.143 85.5833 393.788 86.2083 395.08 86.875C396.413 87.5 398.663 88.0833 401.83 88.625V91.625H374.268ZM450.027 86.3125C446.736 88.6042 443.819 90.3542 441.277 91.5625C438.777 92.7708 436.944 93.375 435.777 93.375C434.361 93.375 433.194 92.3542 432.277 90.3125C431.361 88.2292 430.902 85.4375 430.902 81.9375V50.375C430.902 47.75 430.257 45.5625 428.965 43.8125C427.673 42.0208 425.236 41.1667 421.652 41.25C419.319 41.2917 417.173 42.0417 415.215 43.5C413.298 44.9167 412.444 46.8125 412.652 49.1875C412.694 49.5625 412.236 49.9792 411.277 50.4375C410.319 50.8958 409.152 51.3333 407.777 51.75C406.402 52.1667 405.09 52.5 403.84 52.75C402.632 52.9583 401.798 53 401.34 52.875L400.402 50.375C401.611 47.5833 403.632 45.0208 406.465 42.6875C409.34 40.3542 412.59 38.4792 416.215 37.0625C419.882 35.6042 423.507 34.875 427.09 34.875C431.673 34.875 435.152 36.0625 437.527 38.4375C439.902 40.8125 441.09 44.0417 441.09 48.125V80.125C441.09 83.2083 441.861 84.75 443.402 84.75C443.986 84.75 444.673 84.6667 445.465 84.5C446.298 84.2917 447.486 83.8542 449.027 83.1875L450.027 86.3125ZM431.465 63C427.298 63.6667 424.027 64.3333 421.652 65C419.319 65.6667 417.548 66.3542 416.34 67.0625C415.132 67.7708 414.111 68.5417 413.277 69.375C412.277 70.4167 411.444 71.6042 410.777 72.9375C410.152 74.2708 409.84 75.8333 409.84 77.625C409.84 80.625 410.59 82.6042 412.09 83.5625C413.632 84.5208 414.923 85 415.965 85C418.132 85 420.486 84.4167 423.027 83.25C425.611 82.0417 428.423 80.0625 431.465 77.3125L431.965 82.3125C428.298 86.2708 424.632 89.1042 420.965 90.8125C417.34 92.5208 414.215 93.375 411.59 93.375C409.632 93.375 407.673 92.9167 405.715 92C403.757 91.125 402.111 89.7292 400.777 87.8125C399.486 85.8958 398.84 83.4167 398.84 80.375C398.84 77.4583 399.361 75.0208 400.402 73.0625C401.444 71.0625 402.673 69.3542 404.09 67.9375C405.382 66.6458 406.944 65.4375 408.777 64.3125C410.652 63.1875 413.34 62.125 416.84 61.125C420.382 60.125 425.257 59.1667 431.465 58.25V63ZM481.288 84.125C477.121 87.2083 473.267 89.5208 469.725 91.0625C466.183 92.6042 463.371 93.375 461.288 93.375C458.413 93.375 455.892 92.2292 453.725 89.9375C451.6 87.6042 450.538 83.6875 450.538 78.1875V42.75H443.1L441.725 40.9375L446.288 36.625H450.538V22.6875L458.788 15.8125L460.725 17.4375V36.625H479.475L481.288 38.5C480.579 39.625 479.621 40.8542 478.413 42.1875C477.204 43.5208 476.204 44.3958 475.413 44.8125C474.496 44.3542 473.079 43.8958 471.163 43.4375C469.246 42.9792 466.85 42.75 463.975 42.75H460.725V73C460.725 77.5417 461.183 80.6667 462.1 82.375C463.058 84.0417 464.579 84.875 466.663 84.875C468.038 84.875 469.725 84.6042 471.725 84.0625C473.725 83.4792 476.267 82.375 479.35 80.75L481.288 84.125ZM531.423 39.625C529.714 39.7917 528.089 40.1458 526.548 40.6875C525.048 41.1875 523.464 42.1042 521.798 43.4375L498.11 62.3125L492.798 60.5L510.485 44.875C512.193 43.3333 513.068 42.2083 513.11 41.5C513.152 40.75 512.673 40.25 511.673 40C510.714 39.75 509.548 39.625 508.173 39.625V36.625H531.423V39.625ZM474.86 91.625V88.625C477.443 87.9167 479.423 87.3125 480.798 86.8125C482.214 86.3125 482.923 85.7083 482.923 85V15.5C482.923 13.1667 482.714 11.5 482.298 10.5C481.881 9.45833 481.089 8.77083 479.923 8.4375C478.798 8.10417 477.11 7.8125 474.86 7.5625V4.6875C477.818 4.10417 480.673 3.47917 483.423 2.8125C486.214 2.10417 488.693 1.16667 490.86 0L493.11 2.125V85C493.11 85.5833 493.464 86.1042 494.173 86.5625C494.881 86.9792 496.673 87.6667 499.548 88.625V91.625H474.86ZM533.485 90.3125C531.193 90.8542 528.881 91.2917 526.548 91.625C524.256 92 522.693 92.1875 521.86 92.1875C518.943 92.1875 516.673 91.1458 515.048 89.0625L492.923 60.5L500.048 56.0625L524.235 84.5C525.318 85.75 526.485 86.5833 527.735 87C529.027 87.375 530.818 87.4792 533.11 87.3125L533.485 90.3125ZM579.87 62.9375C579.87 66.8542 579.141 70.6458 577.682 74.3125C576.266 77.9375 574.287 81.1875 571.745 84.0625C569.245 86.9375 566.349 89.2083 563.057 90.875C559.807 92.5417 556.349 93.375 552.682 93.375C547.682 93.375 543.307 92.1667 539.557 89.75C535.807 87.2917 532.891 83.9583 530.807 79.75C528.766 75.5 527.745 70.7083 527.745 65.375C527.745 61.4583 528.432 57.6875 529.807 54.0625C531.224 50.3958 533.162 47.125 535.62 44.25C538.12 41.375 541.016 39.1042 544.307 37.4375C547.641 35.7292 551.203 34.875 554.995 34.875C560.037 34.875 564.412 36.1042 568.12 38.5625C571.828 40.9792 574.703 44.3125 576.745 48.5625C578.828 52.7708 579.87 57.5625 579.87 62.9375ZM569.307 64.9375C569.307 60.7708 568.516 56.9375 566.932 53.4375C565.391 49.8958 563.391 47.0417 560.932 44.875C558.516 42.7083 555.974 41.625 553.307 41.625C549.557 41.625 546.578 42.6042 544.37 44.5625C542.203 46.4792 540.662 49.1042 539.745 52.4375C538.828 55.7708 538.37 59.5208 538.37 63.6875C538.37 67.8125 539.203 71.625 540.87 75.125C542.537 78.625 544.599 81.4375 547.057 83.5625C549.516 85.6458 551.953 86.6875 554.37 86.6875C559.662 86.6875 563.474 84.7292 565.807 80.8125C568.141 76.8958 569.307 71.6042 569.307 64.9375ZM632.818 39.625C630.484 40.1667 628.943 40.6875 628.193 41.1875C627.484 41.6875 626.922 42.5208 626.505 43.6875L609.943 87.8125C609.276 89.5625 608.005 90.8542 606.13 91.6875C604.255 92.5208 602.693 93.0833 601.443 93.375L581.755 43.6875C581.338 42.6458 580.651 41.8333 579.693 41.25C578.776 40.625 577.338 40.0833 575.38 39.625V36.625H599.005V39.625C596.005 40.0417 594.068 40.5 593.193 41C592.318 41.5 592.13 42.3958 592.63 43.6875L606.568 79.375L619.63 43.6875C620.088 42.4792 619.943 41.625 619.193 41.125C618.484 40.5833 616.713 40.0833 613.88 39.625V36.625H632.818V39.625ZM648.078 17.0625C648.078 19.3958 647.348 21.375 645.89 23C644.473 24.5833 642.661 25.375 640.453 25.375C636.619 25.375 634.703 23.4167 634.703 19.5C634.703 17.125 635.453 15.1458 636.953 13.5625C638.453 11.9792 640.223 11.1875 642.265 11.1875C644.057 11.1875 645.473 11.6875 646.515 12.6875C647.557 13.6458 648.078 15.1042 648.078 17.0625ZM627.953 91.625V88.625C633.328 87.5417 636.015 86.3333 636.015 85V52.375C636.015 49.6667 635.89 47.6458 635.64 46.3125C635.432 44.9375 634.765 44 633.64 43.5C632.515 42.9583 630.619 42.5625 627.953 42.3125V39.5C630.661 39 633.432 38.3542 636.265 37.5625C639.098 36.7292 641.598 35.8333 643.765 34.875H646.203V85C646.203 85.4583 646.828 86.0417 648.078 86.75C649.369 87.4583 651.432 88.0833 654.265 88.625V91.625H627.953ZM697.463 80.375C694.088 84.3333 691.171 87.25 688.713 89.125C686.254 90.9583 683.942 92.125 681.775 92.625C679.65 93.125 677.358 93.375 674.9 93.375C670.983 93.375 667.275 92.2708 663.775 90.0625C660.275 87.8125 657.421 84.6042 655.213 80.4375C653.004 76.2292 651.9 71.2083 651.9 65.375C651.9 59.7083 653.233 54.5833 655.9 50C658.567 45.375 662.192 41.7083 666.775 39C671.358 36.25 676.525 34.875 682.275 34.875C684.858 34.875 687.588 35.3125 690.463 36.1875C693.338 37.0208 695.421 38.1458 696.713 39.5625C696.838 40.1875 696.692 41.2708 696.275 42.8125C695.858 44.3125 695.338 45.8333 694.713 47.375C694.088 48.875 693.525 50 693.025 50.75L690.4 50.1875C689.608 48.1458 688.15 46.2083 686.025 44.375C683.942 42.5417 681.004 41.625 677.213 41.625C673.296 41.625 669.796 43.4167 666.713 47C663.629 50.5833 662.088 56.1042 662.088 63.5625C662.088 67.9375 662.879 71.75 664.463 75C666.088 78.2083 668.213 80.7083 670.838 82.5C673.504 84.25 676.358 85.125 679.4 85.125C680.858 85.125 682.233 85 683.525 84.75C684.817 84.4583 686.338 83.7917 688.088 82.75C689.838 81.7083 692.129 80 694.963 77.625L697.463 80.375Z" fill="#DD2C2C"/>
</g>
<defs>
<filter id="filter0_d_1_3" x="0" y="0" width="701.463" height="97.375" filterUnits="userSpaceOnUse" color-interpolation-filters="sRGB">
<feFlood flood-opacity="0" result="BackgroundImageFix"/>
<feColorMatrix in="SourceAlpha" type="matrix" values="0 0 0 0 0 0 0 0 0 0 0 0 0 0 0 0 0 0 127 0" result="hardAlpha"/>
<feOffset dx="4" dy="4"/>
<feComposite in2="hardAlpha" operator="out"/>
<feColorMatrix type="matrix" values="0 0 0 0 0 0 0 0 0 0 0 0 0 0 0 0 0 0 0.25 0"/>
<feBlend mode="normal" in2="BackgroundImageFix" result="effect1_dropShadow_1_3"/>
<feBlend mode="normal" in="SourceGraphic" in2="effect1_dropShadow_1_3" result="shape"/>
</filter>
</defs>
</svg>
