<svg width="210" height="47" viewBox="0 0 210 47" fill="none" xmlns="http://www.w3.org/2000/svg">
<g filter="url(#filter0_d_1_78)">
<rect x="7" y="3" width="160" height="33" fill="#140CB4"/>
</g>
<path d="M24.28 12.44C24.8933 12.3467 25.4333 12.2867 25.9 12.26C26.38 12.22 26.8133 12.2 27.2 12.2C28.48 12.2 29.5067 12.3667 30.28 12.7C31.0667 13.0333 31.6333 13.58 31.98 14.34C32.34 15.0867 32.52 16.0733 32.52 17.3C32.52 18.5133 32.34 19.4933 31.98 20.24C31.6333 20.9867 31.0667 21.5333 30.28 21.88C29.5067 22.2133 28.48 22.38 27.2 22.38C26.8667 22.38 26.54 22.3733 26.22 22.36C25.9 22.3333 25.6067 22.3067 25.34 22.28L26.18 20.08C26.38 20.0933 26.58 20.1133 26.78 20.14C26.9933 20.1667 27.2133 20.18 27.44 20.18C28.0667 20.18 28.5667 20.0867 28.94 19.9C29.3133 19.7133 29.58 19.4067 29.74 18.98C29.9133 18.5533 30 17.9933 30 17.3C30 16.6067 29.9133 16.0533 29.74 15.64C29.58 15.2133 29.3133 14.9067 28.94 14.72C28.5667 14.5333 28.0667 14.44 27.44 14.44C27.2133 14.44 26.9867 14.4533 26.76 14.48C26.5467 14.4933 26.3533 14.5133 26.18 14.54L26.84 13.86V27H24.28V12.44ZM34.14 12.44C34.7533 12.3467 35.2867 12.2867 35.74 12.26C36.2067 12.22 36.6467 12.2 37.06 12.2C38.34 12.2 39.3667 12.36 40.14 12.68C40.9267 12.9867 41.4933 13.4867 41.84 14.18C42.2 14.8733 42.38 15.7867 42.38 16.92C42.38 18.0533 42.2 18.9667 41.84 19.66C41.4933 20.3533 40.9267 20.86 40.14 21.18C39.3667 21.4867 38.34 21.64 37.06 21.64C36.7267 21.64 36.4 21.6333 36.08 21.62C35.76 21.5933 35.4667 21.5667 35.2 21.54L36.04 19.4C36.28 19.44 36.5067 19.4667 36.72 19.48C36.9333 19.4933 37.1267 19.5 37.3 19.5C37.94 19.5 38.44 19.42 38.8 19.26C39.1733 19.0867 39.44 18.82 39.6 18.46C39.7733 18.0867 39.86 17.5933 39.86 16.98C39.86 16.3533 39.7733 15.86 39.6 15.5C39.44 15.1267 39.1733 14.86 38.8 14.7C38.44 14.5267 37.94 14.44 37.3 14.44C37.1267 14.44 36.9333 14.4467 36.72 14.46C36.52 14.4733 36.2867 14.5 36.02 14.54L36.62 13.86V27H34.14V12.44ZM39.8 27L36.08 20.56H38.78L42.58 27H39.8ZM44.42 27V12.4H51.72V14.52H46.96V18.24H51.52V20.32H46.96V24.88H51.72V27H44.42ZM57.48 27.2C56.9067 27.2 56.34 27.1533 55.78 27.06C55.22 26.98 54.6867 26.86 54.18 26.7V24.3C54.66 24.5 55.1667 24.66 55.7 24.78C56.2333 24.9 56.7467 24.96 57.24 24.96C57.96 24.96 58.5133 24.8267 58.9 24.56C59.2867 24.28 59.48 23.8733 59.48 23.34C59.48 23.02 59.4067 22.7333 59.26 22.48C59.1267 22.2133 58.8933 21.9533 58.56 21.7C58.24 21.4333 57.8 21.14 57.24 20.82C56.3867 20.3133 55.7067 19.8333 55.2 19.38C54.6933 18.9133 54.3267 18.42 54.1 17.9C53.8867 17.3667 53.78 16.7667 53.78 16.1C53.78 14.7667 54.2 13.7867 55.04 13.16C55.88 12.52 57.1267 12.2 58.78 12.2C59.2467 12.2 59.7267 12.2267 60.22 12.28C60.7133 12.32 61.2133 12.4 61.72 12.52V16.94H59.22V13.48L60.12 14.56C59.88 14.52 59.64 14.4933 59.4 14.48C59.16 14.4533 58.9333 14.44 58.72 14.44C57.88 14.44 57.2733 14.5733 56.9 14.84C56.5267 15.1067 56.34 15.54 56.34 16.14C56.34 16.4867 56.4133 16.8067 56.56 17.1C56.72 17.3933 56.9733 17.6867 57.32 17.98C57.68 18.2733 58.16 18.5933 58.76 18.94C59.5733 19.4067 60.22 19.86 60.7 20.3C61.18 20.7267 61.52 21.1867 61.72 21.68C61.9333 22.1733 62.04 22.7467 62.04 23.4C62.04 24.68 61.6667 25.6333 60.92 26.26C60.1733 26.8867 59.0267 27.2 57.48 27.2ZM64.42 27V12.4H71.72V14.52H66.96V18.24H71.52V20.32H66.96V24.88H71.72V27H64.42ZM73.88 27V12.4H77.22L79.56 22.46H79.64V12.4H82.12V27H78.78L76.44 16.94H76.36V27H73.88ZM86.72 27V14.62H83.72V12.4H92.28V14.62H89.28V27H86.72ZM93.18 27L96.56 12.4H99.44L102.82 27H100.3L98.04 15.42H97.96L95.7 27H93.18ZM95.22 23.66V21.52H100.78V23.66H95.22ZM106.72 27V14.62H103.72V12.4H112.28V14.62H109.28V27H106.72ZM114.42 27V24.86H116.72V14.54H114.42V12.4H121.58V14.54H119.28V24.86H121.58V27H114.42ZM128 27.2C126.92 27.2 126.053 26.98 125.4 26.54C124.76 26.0867 124.293 25.3533 124 24.34C123.72 23.3267 123.58 21.98 123.58 20.3V19.1C123.58 17.4067 123.72 16.06 124 15.06C124.293 14.0467 124.76 13.32 125.4 12.88C126.053 12.4267 126.92 12.2 128 12.2C129.08 12.2 129.94 12.4267 130.58 12.88C131.233 13.32 131.7 14.0467 131.98 15.06C132.273 16.06 132.42 17.4067 132.42 19.1V20.3C132.42 21.98 132.273 23.3267 131.98 24.34C131.7 25.3533 131.233 26.0867 130.58 26.54C129.94 26.98 129.08 27.2 128 27.2ZM128 24.98C128.507 24.98 128.887 24.8533 129.14 24.6C129.407 24.3333 129.593 23.8533 129.7 23.16C129.807 22.4533 129.86 21.44 129.86 20.12V19.28C129.86 17.96 129.807 16.9533 129.7 16.26C129.593 15.5533 129.407 15.0733 129.14 14.82C128.887 14.5533 128.507 14.42 128 14.42C127.507 14.42 127.127 14.5533 126.86 14.82C126.593 15.0733 126.407 15.5533 126.3 16.26C126.193 16.9533 126.14 17.96 126.14 19.28V20.12C126.14 21.44 126.193 22.4533 126.3 23.16C126.407 23.8533 126.593 24.3333 126.86 24.6C127.127 24.8533 127.507 24.98 128 24.98ZM133.88 27V12.4H137.22L139.56 22.46H139.64V12.4H142.12V27H138.78L136.44 16.94H136.36V27H133.88ZM147.48 27.2C146.907 27.2 146.34 27.1533 145.78 27.06C145.22 26.98 144.687 26.86 144.18 26.7V24.3C144.66 24.5 145.167 24.66 145.7 24.78C146.233 24.9 146.747 24.96 147.24 24.96C147.96 24.96 148.513 24.8267 148.9 24.56C149.287 24.28 149.48 23.8733 149.48 23.34C149.48 23.02 149.407 22.7333 149.26 22.48C149.127 22.2133 148.893 21.9533 148.56 21.7C148.24 21.4333 147.8 21.14 147.24 20.82C146.387 20.3133 145.707 19.8333 145.2 19.38C144.693 18.9133 144.327 18.42 144.1 17.9C143.887 17.3667 143.78 16.7667 143.78 16.1C143.78 14.7667 144.2 13.7867 145.04 13.16C145.88 12.52 147.127 12.2 148.78 12.2C149.247 12.2 149.727 12.2267 150.22 12.28C150.713 12.32 151.213 12.4 151.72 12.52V16.94H149.22V13.48L150.12 14.56C149.88 14.52 149.64 14.4933 149.4 14.48C149.16 14.4533 148.933 14.44 148.72 14.44C147.88 14.44 147.273 14.5733 146.9 14.84C146.527 15.1067 146.34 15.54 146.34 16.14C146.34 16.4867 146.413 16.8067 146.56 17.1C146.72 17.3933 146.973 17.6867 147.32 17.98C147.68 18.2733 148.16 18.5933 148.76 18.94C149.573 19.4067 150.22 19.86 150.7 20.3C151.18 20.7267 151.52 21.1867 151.72 21.68C151.933 22.1733 152.04 22.7467 152.04 23.4C152.04 24.68 151.667 25.6333 150.92 26.26C150.173 26.8867 149.027 27.2 147.48 27.2Z" fill="white"/>
<defs>
<filter id="filter0_d_1_78" x="0" y="0" width="174" height="47" filterUnits="userSpaceOnUse" color-interpolation-filters="sRGB">
<feFlood flood-opacity="0" result="BackgroundImageFix"/>
<feColorMatrix in="SourceAlpha" type="matrix" values="0 0 0 0 0 0 0 0 0 0 0 0 0 0 0 0 0 0 127 0" result="hardAlpha"/>
<feMorphology radius="3" operator="dilate" in="SourceAlpha" result="effect1_dropShadow_1_78"/>
<feOffset dy="4"/>
<feGaussianBlur stdDeviation="2"/>
<feComposite in2="hardAlpha" operator="out"/>
<feColorMatrix type="matrix" values="0 0 0 0 0 0 0 0 0 0 0 0 0 0 0 0 0 0 0.25 0"/>
<feBlend mode="normal" in2="BackgroundImageFix" result="effect1_dropShadow_1_78"/>
<feBlend mode="normal" in="SourceGraphic" in2="effect1_dropShadow_1_78" result="shape"/>
</filter>
</defs>
</svg>
