<svg width="210" height="47" viewBox="0 0 210 47" fill="none" xmlns="http://www.w3.org/2000/svg">
<g filter="url(#filter0_d_1_76)">
<rect x="7" y="3" width="160" height="33" fill="#140CB4"/>
</g>
<path d="M24.28 12.44C24.8933 12.3467 25.4333 12.2867 25.9 12.26C26.38 12.22 26.8133 12.2 27.2 12.2C28.48 12.2 29.5067 12.3667 30.28 12.7C31.0667 13.0333 31.6333 13.58 31.98 14.34C32.34 15.0867 32.52 16.0733 32.52 17.3C32.52 18.5133 32.34 19.4933 31.98 20.24C31.6333 20.9867 31.0667 21.5333 30.28 21.88C29.5067 22.2133 28.48 22.38 27.2 22.38C26.8667 22.38 26.54 22.3733 26.22 22.36C25.9 22.3333 25.6067 22.3067 25.34 22.28L26.18 20.08C26.38 20.0933 26.58 20.1133 26.78 20.14C26.9933 20.1667 27.2133 20.18 27.44 20.18C28.0667 20.18 28.5667 20.0867 28.94 19.9C29.3133 19.7133 29.58 19.4067 29.74 18.98C29.9133 18.5533 30 17.9933 30 17.3C30 16.6067 29.9133 16.0533 29.74 15.64C29.58 15.2133 29.3133 14.9067 28.94 14.72C28.5667 14.5333 28.0667 14.44 27.44 14.44C27.2133 14.44 26.9867 14.4533 26.76 14.48C26.5467 14.4933 26.3533 14.5133 26.18 14.54L26.84 13.86V27H24.28V12.44ZM34.14 12.44C34.7533 12.3467 35.2867 12.2867 35.74 12.26C36.2067 12.22 36.6467 12.2 37.06 12.2C38.34 12.2 39.3667 12.36 40.14 12.68C40.9267 12.9867 41.4933 13.4867 41.84 14.18C42.2 14.8733 42.38 15.7867 42.38 16.92C42.38 18.0533 42.2 18.9667 41.84 19.66C41.4933 20.3533 40.9267 20.86 40.14 21.18C39.3667 21.4867 38.34 21.64 37.06 21.64C36.7267 21.64 36.4 21.6333 36.08 21.62C35.76 21.5933 35.4667 21.5667 35.2 21.54L36.04 19.4C36.28 19.44 36.5067 19.4667 36.72 19.48C36.9333 19.4933 37.1267 19.5 37.3 19.5C37.94 19.5 38.44 19.42 38.8 19.26C39.1733 19.0867 39.44 18.82 39.6 18.46C39.7733 18.0867 39.86 17.5933 39.86 16.98C39.86 16.3533 39.7733 15.86 39.6 15.5C39.44 15.1267 39.1733 14.86 38.8 14.7C38.44 14.5267 37.94 14.44 37.3 14.44C37.1267 14.44 36.9333 14.4467 36.72 14.46C36.52 14.4733 36.2867 14.5 36.02 14.54L36.62 13.86V27H34.14V12.44ZM39.8 27L36.08 20.56H38.78L42.58 27H39.8ZM48 27.2C46.92 27.2 46.0533 26.98 45.4 26.54C44.76 26.0867 44.2933 25.3533 44 24.34C43.72 23.3267 43.58 21.98 43.58 20.3V19.1C43.58 17.4067 43.72 16.06 44 15.06C44.2933 14.0467 44.76 13.32 45.4 12.88C46.0533 12.4267 46.92 12.2 48 12.2C49.08 12.2 49.94 12.4267 50.58 12.88C51.2333 13.32 51.7 14.0467 51.98 15.06C52.2733 16.06 52.42 17.4067 52.42 19.1V20.3C52.42 21.98 52.2733 23.3267 51.98 24.34C51.7 25.3533 51.2333 26.0867 50.58 26.54C49.94 26.98 49.08 27.2 48 27.2ZM48 24.98C48.5067 24.98 48.8867 24.8533 49.14 24.6C49.4067 24.3333 49.5933 23.8533 49.7 23.16C49.8067 22.4533 49.86 21.44 49.86 20.12V19.28C49.86 17.96 49.8067 16.9533 49.7 16.26C49.5933 15.5533 49.4067 15.0733 49.14 14.82C48.8867 14.5533 48.5067 14.42 48 14.42C47.5067 14.42 47.1267 14.5533 46.86 14.82C46.5933 15.0733 46.4067 15.5533 46.3 16.26C46.1933 16.9533 46.14 17.96 46.14 19.28V20.12C46.14 21.44 46.1933 22.4533 46.3 23.16C46.4067 23.8533 46.5933 24.3333 46.86 24.6C47.1267 24.8533 47.5067 24.98 48 24.98ZM56.92 27.2C55.76 27.2 54.74 27.0067 53.86 26.62V24.3C54.2733 24.5 54.7133 24.66 55.18 24.78C55.66 24.9 56.12 24.96 56.56 24.96C57.28 24.96 57.8 24.7933 58.12 24.46C58.44 24.1133 58.6 23.5733 58.6 22.84V14.54H54.66V12.4H61.16V23.1C61.16 24.5267 60.82 25.5667 60.14 26.22C59.4733 26.8733 58.4 27.2 56.92 27.2ZM64.42 27V12.4H71.72V14.52H66.96V18.24H71.52V20.32H66.96V24.88H71.72V27H64.42ZM76.72 27V14.62H73.72V12.4H82.28V14.62H79.28V27H76.72ZM89.06 27.2C87.2867 27.2 85.96 26.6267 85.08 25.48C84.2133 24.32 83.78 22.5933 83.78 20.3V19.1C83.78 16.8067 84.2133 15.0867 85.08 13.94C85.96 12.78 87.2733 12.2 89.02 12.2C89.4733 12.2 89.9333 12.24 90.4 12.32C90.88 12.4 91.3067 12.5133 91.68 12.66V17.74H89.18V13.12L90.42 15.04C89.9533 14.64 89.46 14.44 88.94 14.44C88.0867 14.44 87.44 14.8467 87 15.66C86.56 16.4733 86.34 17.68 86.34 19.28V20.12C86.34 21.84 86.5733 23.08 87.04 23.84C87.52 24.5867 88.2867 24.96 89.34 24.96C89.6733 24.96 90.0467 24.9267 90.46 24.86C90.8733 24.7933 91.28 24.7067 91.68 24.6V26.92C91.2933 27 90.86 27.0667 90.38 27.12C89.9 27.1733 89.46 27.2 89.06 27.2ZM97.48 27.2C96.9067 27.2 96.34 27.1533 95.78 27.06C95.22 26.98 94.6867 26.86 94.18 26.7V24.3C94.66 24.5 95.1667 24.66 95.7 24.78C96.2333 24.9 96.7467 24.96 97.24 24.96C97.96 24.96 98.5133 24.8267 98.9 24.56C99.2867 24.28 99.48 23.8733 99.48 23.34C99.48 23.02 99.4067 22.7333 99.26 22.48C99.1267 22.2133 98.8933 21.9533 98.56 21.7C98.24 21.4333 97.8 21.14 97.24 20.82C96.3867 20.3133 95.7067 19.8333 95.2 19.38C94.6933 18.9133 94.3267 18.42 94.1 17.9C93.8867 17.3667 93.78 16.7667 93.78 16.1C93.78 14.7667 94.2 13.7867 95.04 13.16C95.88 12.52 97.1267 12.2 98.78 12.2C99.2467 12.2 99.7267 12.2267 100.22 12.28C100.713 12.32 101.213 12.4 101.72 12.52V16.94H99.22V13.48L100.12 14.56C99.88 14.52 99.64 14.4933 99.4 14.48C99.16 14.4533 98.9333 14.44 98.72 14.44C97.88 14.44 97.2733 14.5733 96.9 14.84C96.5267 15.1067 96.34 15.54 96.34 16.14C96.34 16.4867 96.4133 16.8067 96.56 17.1C96.72 17.3933 96.9733 17.6867 97.32 17.98C97.68 18.2733 98.16 18.5933 98.76 18.94C99.5733 19.4067 100.22 19.86 100.7 20.3C101.18 20.7267 101.52 21.1867 101.72 21.68C101.933 22.1733 102.04 22.7467 102.04 23.4C102.04 24.68 101.667 25.6333 100.92 26.26C100.173 26.8867 99.0267 27.2 97.48 27.2Z" fill="white"/>
<defs>
<filter id="filter0_d_1_76" x="0" y="0" width="174" height="47" filterUnits="userSpaceOnUse" color-interpolation-filters="sRGB">
<feFlood flood-opacity="0" result="BackgroundImageFix"/>
<feColorMatrix in="SourceAlpha" type="matrix" values="0 0 0 0 0 0 0 0 0 0 0 0 0 0 0 0 0 0 127 0" result="hardAlpha"/>
<feMorphology radius="3" operator="dilate" in="SourceAlpha" result="effect1_dropShadow_1_76"/>
<feOffset dy="4"/>
<feGaussianBlur stdDeviation="2"/>
<feComposite in2="hardAlpha" operator="out"/>
<feColorMatrix type="matrix" values="0 0 0 0 0 0 0 0 0 0 0 0 0 0 0 0 0 0 0.25 0"/>
<feBlend mode="normal" in2="BackgroundImageFix" result="effect1_dropShadow_1_76"/>
<feBlend mode="normal" in="SourceGraphic" in2="effect1_dropShadow_1_76" result="shape"/>
</filter>
</defs>
</svg>
