<svg width="202" height="106" viewBox="0 0 202 106" fill="none" xmlns="http://www.w3.org/2000/svg">
<rect x="64" y="29" width="133" height="59" fill="url(#paint0_linear_1_66)"/>
<path d="M124.56 52C124.56 49.76 124.56 47.4933 124.56 45.2C124.56 42.9067 124.56 40.64 124.56 38.4C125.387 38.4 126.22 38.4 127.06 38.4C127.9 38.4 128.733 38.4 129.56 38.4C129.947 39.76 130.327 41.14 130.7 42.54C131.087 43.9267 131.467 45.3 131.84 46.66C132.213 45.3 132.587 43.9267 132.96 42.54C133.347 41.14 133.727 39.76 134.1 38.4C134.927 38.4 135.753 38.4 136.58 38.4C137.407 38.4 138.227 38.4 139.04 38.4C139.053 40.64 139.067 42.9067 139.08 45.2C139.093 47.4933 139.107 49.76 139.12 52C138.56 52 137.993 52 137.42 52C136.86 52 136.3 52 135.74 52C135.74 50.48 135.74 48.9467 135.74 47.4C135.74 45.84 135.74 44.3 135.74 42.78C135.34 44.3 134.933 45.84 134.52 47.4C134.107 48.9467 133.7 50.48 133.3 52C132.807 52 132.3 52 131.78 52C131.273 52 130.767 52 130.26 52C129.86 50.5067 129.46 49 129.06 47.48C128.66 45.9467 128.26 44.4333 127.86 42.94C127.86 44.4333 127.86 45.9467 127.86 47.48C127.86 49 127.86 50.5067 127.86 52C127.327 52 126.78 52 126.22 52C125.66 52 125.107 52 124.56 52ZM143.868 52C143.868 51.1867 143.868 50.3667 143.868 49.54C143.868 48.7133 143.868 47.8933 143.868 47.08C143.161 45.6533 142.441 44.2067 141.708 42.74C140.975 41.2733 140.255 39.8267 139.548 38.4C140.161 38.4 140.781 38.4 141.408 38.4C142.035 38.4 142.655 38.4 143.268 38.4C143.655 39.2133 144.048 40.0333 144.448 40.86C144.861 41.6733 145.261 42.4867 145.648 43.3C146.035 42.4867 146.428 41.6733 146.828 40.86C147.228 40.0333 147.621 39.2133 148.008 38.4C148.621 38.4 149.235 38.4 149.848 38.4C150.461 38.4 151.075 38.4 151.688 38.4C150.981 39.8267 150.261 41.2733 149.528 42.74C148.795 44.2067 148.075 45.6533 147.368 47.08C147.368 47.8933 147.368 48.7133 147.368 49.54C147.368 50.3667 147.368 51.1867 147.368 52C146.795 52 146.215 52 145.628 52C145.041 52 144.455 52 143.868 52ZM85.2609 75C85.2609 72.76 85.2609 70.4933 85.2609 68.2C85.2609 65.9067 85.2609 63.64 85.2609 61.4C86.0609 61.4 86.8609 61.4 87.6609 61.4C88.4743 61.4 89.2809 61.4 90.0809 61.4C91.0943 61.4 91.9809 61.5933 92.7409 61.98C93.5009 62.3533 94.0876 62.8867 94.5009 63.58C94.9276 64.26 95.1409 65.06 95.1409 65.98C95.1409 66.7667 94.9809 67.4667 94.6609 68.08C94.3409 68.6933 93.9076 69.1933 93.3609 69.58C93.8943 70.4733 94.4276 71.38 94.9609 72.3C95.5076 73.2067 96.0476 74.1067 96.5809 75C95.9276 75 95.2743 75 94.6209 75C93.9676 75 93.3143 75 92.6609 75C92.2476 74.2533 91.8276 73.4933 91.4009 72.72C90.9876 71.9467 90.5676 71.1867 90.1409 70.44C89.9143 70.44 89.6809 70.44 89.4409 70.44C89.2143 70.44 88.9876 70.44 88.7609 70.44C88.7609 71.1867 88.7609 71.9467 88.7609 72.72C88.7609 73.4933 88.7609 74.2533 88.7609 75C88.1876 75 87.6076 75 87.0209 75C86.4343 75 85.8476 75 85.2609 75ZM90.0809 64.56C89.8676 64.56 89.6476 64.56 89.4209 64.56C89.2076 64.56 88.9876 64.56 88.7609 64.56C88.7609 65.0533 88.7609 65.5467 88.7609 66.04C88.7609 66.5333 88.7609 67.0267 88.7609 67.52C89.0143 67.52 89.2676 67.52 89.5209 67.52C89.7743 67.52 90.0276 67.52 90.2809 67.52C90.6809 67.52 91.0076 67.38 91.2609 67.1C91.5143 66.8067 91.6409 66.4533 91.6409 66.04C91.6409 65.6133 91.5009 65.26 91.2209 64.98C90.9543 64.7 90.5743 64.56 90.0809 64.56ZM96.9805 75C96.9805 72.76 96.9805 70.4933 96.9805 68.2C96.9805 65.9067 96.9805 63.64 96.9805 61.4C98.3271 61.4 99.6871 61.4 101.06 61.4C102.434 61.4 103.794 61.4 105.14 61.4C105.14 61.9067 105.14 62.4267 105.14 62.96C105.14 63.4933 105.14 64.0133 105.14 64.52C104.367 64.52 103.587 64.52 102.8 64.52C102.027 64.52 101.254 64.52 100.48 64.52C100.48 64.8533 100.48 65.1867 100.48 65.52C100.48 65.84 100.48 66.1667 100.48 66.5C101.187 66.5 101.9 66.5 102.62 66.5C103.34 66.5 104.047 66.5 104.74 66.5C104.74 66.9933 104.74 67.4933 104.74 68C104.74 68.5067 104.74 69.0133 104.74 69.52C104.047 69.52 103.34 69.52 102.62 69.52C101.9 69.52 101.187 69.52 100.48 69.52C100.48 69.9067 100.48 70.3 100.48 70.7C100.48 71.1 100.48 71.4933 100.48 71.88C101.254 71.88 102.027 71.88 102.8 71.88C103.587 71.88 104.367 71.88 105.14 71.88C105.14 72.3867 105.14 72.9067 105.14 73.44C105.14 73.9733 105.14 74.4933 105.14 75C103.794 75 102.434 75 101.06 75C99.6871 75 98.3271 75 96.9805 75ZM115.687 70.9C115.687 71.9133 115.42 72.74 114.887 73.38C114.367 74.0067 113.66 74.46 112.767 74.74C111.887 75.02 110.9 75.14 109.807 75.1C108.714 75.0733 107.6 74.9067 106.467 74.6C106.467 74.0267 106.467 73.4533 106.467 72.88C106.467 72.3067 106.467 71.7333 106.467 71.16C107.507 71.5333 108.454 71.7667 109.307 71.86C110.16 71.9533 110.84 71.92 111.347 71.76C111.854 71.5867 112.107 71.3 112.107 70.9C112.107 70.62 111.967 70.3933 111.687 70.22C111.407 70.0333 111.04 69.8667 110.587 69.72C110.147 69.5733 109.68 69.4067 109.187 69.22C108.694 69.02 108.22 68.7733 107.767 68.48C107.327 68.1733 106.967 67.78 106.687 67.3C106.407 66.8067 106.267 66.1933 106.267 65.46C106.267 64.5533 106.507 63.7867 106.987 63.16C107.467 62.5333 108.114 62.06 108.927 61.74C109.754 61.42 110.687 61.26 111.727 61.26C112.78 61.26 113.867 61.42 114.987 61.74C114.987 62.3133 114.987 62.8867 114.987 63.46C114.987 64.0333 114.987 64.6067 114.987 65.18C114.054 64.78 113.194 64.54 112.407 64.46C111.634 64.3667 111.014 64.4067 110.547 64.58C110.08 64.74 109.847 65.0067 109.847 65.38C109.847 65.6467 109.987 65.8667 110.267 66.04C110.547 66.2133 110.907 66.3733 111.347 66.52C111.8 66.6533 112.274 66.82 112.767 67.02C113.26 67.2067 113.727 67.46 114.167 67.78C114.62 68.0867 114.987 68.4933 115.267 69C115.547 69.4933 115.687 70.1267 115.687 70.9ZM127.769 69.84C127.769 70.68 127.622 71.44 127.329 72.12C127.049 72.7867 126.649 73.36 126.129 73.84C125.622 74.32 125.022 74.6867 124.329 74.94C123.649 75.1933 122.909 75.32 122.109 75.32C121.295 75.32 120.549 75.1933 119.869 74.94C119.189 74.6867 118.595 74.3267 118.089 73.86C117.595 73.38 117.209 72.8067 116.929 72.14C116.649 71.4733 116.509 70.72 116.509 69.88C116.509 68.48 116.509 67.0667 116.509 65.64C116.509 64.2133 116.509 62.8 116.509 61.4C117.095 61.4 117.682 61.4 118.269 61.4C118.855 61.4 119.435 61.4 120.009 61.4C120.009 62.7733 120.009 64.1533 120.009 65.54C120.009 66.9267 120.009 68.3067 120.009 69.68C120.009 70.4 120.209 70.98 120.609 71.42C121.009 71.86 121.522 72.08 122.149 72.08C122.775 72.08 123.282 71.86 123.669 71.42C124.069 70.98 124.269 70.4 124.269 69.68C124.269 68.3067 124.269 66.9267 124.269 65.54C124.269 64.1533 124.269 62.7733 124.269 61.4C124.855 61.4 125.442 61.4 126.029 61.4C126.615 61.4 127.195 61.4 127.769 61.4C127.769 62.7867 127.769 64.1933 127.769 65.62C127.769 67.0467 127.769 68.4533 127.769 69.84ZM129.366 75C129.366 72.76 129.366 70.4933 129.366 68.2C129.366 65.9067 129.366 63.64 129.366 61.4C130.192 61.4 131.026 61.4 131.866 61.4C132.706 61.4 133.539 61.4 134.366 61.4C134.752 62.76 135.132 64.14 135.506 65.54C135.892 66.9267 136.272 68.3 136.646 69.66C137.019 68.3 137.392 66.9267 137.766 65.54C138.152 64.14 138.532 62.76 138.906 61.4C139.732 61.4 140.559 61.4 141.386 61.4C142.212 61.4 143.032 61.4 143.846 61.4C143.859 63.64 143.872 65.9067 143.886 68.2C143.899 70.4933 143.912 72.76 143.926 75C143.366 75 142.799 75 142.226 75C141.666 75 141.106 75 140.546 75C140.546 73.48 140.546 71.9467 140.546 70.4C140.546 68.84 140.546 67.3 140.546 65.78C140.146 67.3 139.739 68.84 139.326 70.4C138.912 71.9467 138.506 73.48 138.106 75C137.612 75 137.106 75 136.586 75C136.079 75 135.572 75 135.066 75C134.666 73.5067 134.266 72 133.866 70.48C133.466 68.9467 133.066 67.4333 132.666 65.94C132.666 67.4333 132.666 68.9467 132.666 70.48C132.666 72 132.666 73.5067 132.666 75C132.132 75 131.586 75 131.026 75C130.466 75 129.912 75 129.366 75ZM145.734 75C145.734 72.76 145.734 70.4933 145.734 68.2C145.734 65.9067 145.734 63.64 145.734 61.4C147.08 61.4 148.44 61.4 149.814 61.4C151.187 61.4 152.547 61.4 153.894 61.4C153.894 61.9067 153.894 62.4267 153.894 62.96C153.894 63.4933 153.894 64.0133 153.894 64.52C153.12 64.52 152.34 64.52 151.554 64.52C150.78 64.52 150.007 64.52 149.234 64.52C149.234 64.8533 149.234 65.1867 149.234 65.52C149.234 65.84 149.234 66.1667 149.234 66.5C149.94 66.5 150.654 66.5 151.374 66.5C152.094 66.5 152.8 66.5 153.494 66.5C153.494 66.9933 153.494 67.4933 153.494 68C153.494 68.5067 153.494 69.0133 153.494 69.52C152.8 69.52 152.094 69.52 151.374 69.52C150.654 69.52 149.94 69.52 149.234 69.52C149.234 69.9067 149.234 70.3 149.234 70.7C149.234 71.1 149.234 71.4933 149.234 71.88C150.007 71.88 150.78 71.88 151.554 71.88C152.34 71.88 153.12 71.88 153.894 71.88C153.894 72.3867 153.894 72.9067 153.894 73.44C153.894 73.9733 153.894 74.4933 153.894 75C152.547 75 151.187 75 149.814 75C148.44 75 147.08 75 145.734 75Z" fill="black"/>
<path d="M182.824 66.2453C180.983 64.4204 178.403 63.1596 175.084 62.463C171.764 61.7663 168.895 61.8835 166.476 62.8146L172.674 20.6608L194.095 25.1563L182.824 66.2453ZM168.309 68.1037C169.775 67.0381 171.698 66.7551 174.078 67.2546C176.458 67.7541 178.105 68.7864 179.019 70.3515C179.947 71.8539 180.206 73.576 179.799 75.5177C179.391 77.4594 178.455 78.9631 176.989 80.0287C175.536 81.0316 173.619 81.2834 171.239 80.7839C168.859 80.2844 167.205 79.2834 166.278 77.7809C165.364 76.2159 165.111 74.4625 165.518 72.5208C165.926 70.579 166.856 69.1067 168.309 68.1037Z" fill="url(#paint1_linear_1_66)"/>
<defs>
<linearGradient id="paint0_linear_1_66" x1="197" y1="59.0784" x2="64" y2="59.0784" gradientUnits="userSpaceOnUse">
<stop offset="0.322115" stop-color="#FFE11B"/>
<stop offset="1" stop-color="#F3ECBC"/>
</linearGradient>
<linearGradient id="paint1_linear_1_66" x1="185.913" y1="3.18345" x2="165.17" y2="102.03" gradientUnits="userSpaceOnUse">
<stop stop-color="#DA0A0A"/>
<stop offset="1" stop-color="#F36A16"/>
</linearGradient>
</defs>
</svg>
