<svg width="210" height="47" viewBox="0 0 210 47" fill="none" xmlns="http://www.w3.org/2000/svg">
<g filter="url(#filter0_d_1_79)">
<rect x="7" y="3" width="160" height="33" fill="#140CB4"/>
</g>
<path d="M27.48 27.2C26.9067 27.2 26.34 27.1533 25.78 27.06C25.22 26.98 24.6867 26.86 24.18 26.7V24.3C24.66 24.5 25.1667 24.66 25.7 24.78C26.2333 24.9 26.7467 24.96 27.24 24.96C27.96 24.96 28.5133 24.8267 28.9 24.56C29.2867 24.28 29.48 23.8733 29.48 23.34C29.48 23.02 29.4067 22.7333 29.26 22.48C29.1267 22.2133 28.8933 21.9533 28.56 21.7C28.24 21.4333 27.8 21.14 27.24 20.82C26.3867 20.3133 25.7067 19.8333 25.2 19.38C24.6933 18.9133 24.3267 18.42 24.1 17.9C23.8867 17.3667 23.78 16.7667 23.78 16.1C23.78 14.7667 24.2 13.7867 25.04 13.16C25.88 12.52 27.1267 12.2 28.78 12.2C29.2467 12.2 29.7267 12.2267 30.22 12.28C30.7133 12.32 31.2133 12.4 31.72 12.52V16.94H29.22V13.48L30.12 14.56C29.88 14.52 29.64 14.4933 29.4 14.48C29.16 14.4533 28.9333 14.44 28.72 14.44C27.88 14.44 27.2733 14.5733 26.9 14.84C26.5267 15.1067 26.34 15.54 26.34 16.14C26.34 16.4867 26.4133 16.8067 26.56 17.1C26.72 17.3933 26.9733 17.6867 27.32 17.98C27.68 18.2733 28.16 18.5933 28.76 18.94C29.5733 19.4067 30.22 19.86 30.7 20.3C31.18 20.7267 31.52 21.1867 31.72 21.68C31.9333 22.1733 32.04 22.7467 32.04 23.4C32.04 24.68 31.6667 25.6333 30.92 26.26C30.1733 26.8867 29.0267 27.2 27.48 27.2ZM34.24 27V12.4H36.74V18.54H36.82L40 12.4H42.7L39.14 19.28L42.7 27H40L36.82 20.02H36.74V27H34.24ZM44.42 27V24.86H46.72V14.54H44.42V12.4H51.58V14.54H49.28V24.86H51.58V27H44.42ZM54.38 27V12.4H56.94V24.78H62.08V27H54.38ZM64.38 27V12.4H66.94V24.78H72.08V27H64.38ZM77.48 27.2C76.9067 27.2 76.34 27.1533 75.78 27.06C75.22 26.98 74.6867 26.86 74.18 26.7V24.3C74.66 24.5 75.1667 24.66 75.7 24.78C76.2333 24.9 76.7467 24.96 77.24 24.96C77.96 24.96 78.5133 24.8267 78.9 24.56C79.2867 24.28 79.48 23.8733 79.48 23.34C79.48 23.02 79.4067 22.7333 79.26 22.48C79.1267 22.2133 78.8933 21.9533 78.56 21.7C78.24 21.4333 77.8 21.14 77.24 20.82C76.3867 20.3133 75.7067 19.8333 75.2 19.38C74.6933 18.9133 74.3267 18.42 74.1 17.9C73.8867 17.3667 73.78 16.7667 73.78 16.1C73.78 14.7667 74.2 13.7867 75.04 13.16C75.88 12.52 77.1267 12.2 78.78 12.2C79.2467 12.2 79.7267 12.2267 80.22 12.28C80.7133 12.32 81.2133 12.4 81.72 12.52V16.94H79.22V13.48L80.12 14.56C79.88 14.52 79.64 14.4933 79.4 14.48C79.16 14.4533 78.9333 14.44 78.72 14.44C77.88 14.44 77.2733 14.5733 76.9 14.84C76.5267 15.1067 76.34 15.54 76.34 16.14C76.34 16.4867 76.4133 16.8067 76.56 17.1C76.72 17.3933 76.9733 17.6867 77.32 17.98C77.68 18.2733 78.16 18.5933 78.76 18.94C79.5733 19.4067 80.22 19.86 80.7 20.3C81.18 20.7267 81.52 21.1867 81.72 21.68C81.9333 22.1733 82.04 22.7467 82.04 23.4C82.04 24.68 81.6667 25.6333 80.92 26.26C80.1733 26.8867 79.0267 27.2 77.48 27.2Z" fill="white"/>
<defs>
<filter id="filter0_d_1_79" x="0" y="0" width="174" height="47" filterUnits="userSpaceOnUse" color-interpolation-filters="sRGB">
<feFlood flood-opacity="0" result="BackgroundImageFix"/>
<feColorMatrix in="SourceAlpha" type="matrix" values="0 0 0 0 0 0 0 0 0 0 0 0 0 0 0 0 0 0 127 0" result="hardAlpha"/>
<feMorphology radius="3" operator="dilate" in="SourceAlpha" result="effect1_dropShadow_1_79"/>
<feOffset dy="4"/>
<feGaussianBlur stdDeviation="2"/>
<feComposite in2="hardAlpha" operator="out"/>
<feColorMatrix type="matrix" values="0 0 0 0 0 0 0 0 0 0 0 0 0 0 0 0 0 0 0.25 0"/>
<feBlend mode="normal" in2="BackgroundImageFix" result="effect1_dropShadow_1_79"/>
<feBlend mode="normal" in="SourceGraphic" in2="effect1_dropShadow_1_79" result="shape"/>
</filter>
</defs>
</svg>
